G04*
G04 #@! TF.GenerationSoftware,Altium Limited,Altium Designer,22.1.2 (22)*
G04*
G04 Layer_Color=16711935*
%FSAX25Y25*%
%MOIN*%
G70*
G04*
G04 #@! TF.SameCoordinates,6FBED77C-4E5F-4823-83EA-BC97D1DA3100*
G04*
G04*
G04 #@! TF.FilePolarity,Negative*
G04*
G01*
G75*
%ADD10C,0.06800*%
%ADD11C,0.06600*%
G04:AMPARAMS|DCode=31|XSize=106.42mil|YSize=86.74mil|CornerRadius=0mil|HoleSize=0mil|Usage=FLASHONLY|Rotation=55.000|XOffset=0mil|YOffset=0mil|HoleType=Round|Shape=Rectangle|*
%AMROTATEDRECTD31*
4,1,4,0.00501,-0.06847,-0.06605,-0.01871,-0.00501,0.06847,0.06605,0.01871,0.00501,-0.06847,0.0*
%
%ADD31ROTATEDRECTD31*%

G04:AMPARAMS|DCode=32|XSize=106.42mil|YSize=86.74mil|CornerRadius=0mil|HoleSize=0mil|Usage=FLASHONLY|Rotation=53.000|XOffset=0mil|YOffset=0mil|HoleType=Round|Shape=Rectangle|*
%AMROTATEDRECTD32*
4,1,4,0.00261,-0.06860,-0.06666,-0.01640,-0.00261,0.06860,0.06666,0.01640,0.00261,-0.06860,0.0*
%
%ADD32ROTATEDRECTD32*%

G04:AMPARAMS|DCode=33|XSize=106.42mil|YSize=86.74mil|CornerRadius=0mil|HoleSize=0mil|Usage=FLASHONLY|Rotation=74.000|XOffset=0mil|YOffset=0mil|HoleType=Round|Shape=Rectangle|*
%AMROTATEDRECTD33*
4,1,4,0.02702,-0.06311,-0.05636,-0.03920,-0.02702,0.06311,0.05636,0.03920,0.02702,-0.06311,0.0*
%
%ADD33ROTATEDRECTD33*%

G04:AMPARAMS|DCode=34|XSize=106.42mil|YSize=86.74mil|CornerRadius=0mil|HoleSize=0mil|Usage=FLASHONLY|Rotation=58.000|XOffset=0mil|YOffset=0mil|HoleType=Round|Shape=Rectangle|*
%AMROTATEDRECTD34*
4,1,4,0.00858,-0.06811,-0.06498,-0.02214,-0.00858,0.06811,0.06498,0.02214,0.00858,-0.06811,0.0*
%
%ADD34ROTATEDRECTD34*%

G04:AMPARAMS|DCode=35|XSize=106.42mil|YSize=86.74mil|CornerRadius=0mil|HoleSize=0mil|Usage=FLASHONLY|Rotation=75.000|XOffset=0mil|YOffset=0mil|HoleType=Round|Shape=Rectangle|*
%AMROTATEDRECTD35*
4,1,4,0.02812,-0.06262,-0.05566,-0.04017,-0.02812,0.06262,0.05566,0.04017,0.02812,-0.06262,0.0*
%
%ADD35ROTATEDRECTD35*%

G04:AMPARAMS|DCode=36|XSize=106.42mil|YSize=86.74mil|CornerRadius=0mil|HoleSize=0mil|Usage=FLASHONLY|Rotation=62.000|XOffset=0mil|YOffset=0mil|HoleType=Round|Shape=Rectangle|*
%AMROTATEDRECTD36*
4,1,4,0.01331,-0.06735,-0.06328,-0.02662,-0.01331,0.06735,0.06328,0.02662,0.01331,-0.06735,0.0*
%
%ADD36ROTATEDRECTD36*%

G04:AMPARAMS|DCode=37|XSize=106.42mil|YSize=86.74mil|CornerRadius=0mil|HoleSize=0mil|Usage=FLASHONLY|Rotation=69.000|XOffset=0mil|YOffset=0mil|HoleType=Round|Shape=Rectangle|*
%AMROTATEDRECTD37*
4,1,4,0.02142,-0.06522,-0.05956,-0.03414,-0.02142,0.06522,0.05956,0.03414,0.02142,-0.06522,0.0*
%
%ADD37ROTATEDRECTD37*%

G04:AMPARAMS|DCode=38|XSize=106.42mil|YSize=86.74mil|CornerRadius=0mil|HoleSize=0mil|Usage=FLASHONLY|Rotation=65.000|XOffset=0mil|YOffset=0mil|HoleType=Round|Shape=Rectangle|*
%AMROTATEDRECTD38*
4,1,4,0.01682,-0.06656,-0.06180,-0.02990,-0.01682,0.06656,0.06180,0.02990,0.01682,-0.06656,0.0*
%
%ADD38ROTATEDRECTD38*%

G04:AMPARAMS|DCode=39|XSize=106.42mil|YSize=86.74mil|CornerRadius=0mil|HoleSize=0mil|Usage=FLASHONLY|Rotation=71.000|XOffset=0mil|YOffset=0mil|HoleType=Round|Shape=Rectangle|*
%AMROTATEDRECTD39*
4,1,4,0.02368,-0.06443,-0.05833,-0.03619,-0.02368,0.06443,0.05833,0.03619,0.02368,-0.06443,0.0*
%
%ADD39ROTATEDRECTD39*%

G04:AMPARAMS|DCode=40|XSize=47.37mil|YSize=65.09mil|CornerRadius=0mil|HoleSize=0mil|Usage=FLASHONLY|Rotation=69.000|XOffset=0mil|YOffset=0mil|HoleType=Round|Shape=Rectangle|*
%AMROTATEDRECTD40*
4,1,4,0.02189,-0.03377,-0.03887,-0.01045,-0.02189,0.03377,0.03887,0.01045,0.02189,-0.03377,0.0*
%
%ADD40ROTATEDRECTD40*%

G04:AMPARAMS|DCode=41|XSize=47.37mil|YSize=65.09mil|CornerRadius=0mil|HoleSize=0mil|Usage=FLASHONLY|Rotation=65.000|XOffset=0mil|YOffset=0mil|HoleType=Round|Shape=Rectangle|*
%AMROTATEDRECTD41*
4,1,4,0.01949,-0.03522,-0.03950,-0.00771,-0.01949,0.03522,0.03950,0.00771,0.01949,-0.03522,0.0*
%
%ADD41ROTATEDRECTD41*%

G04:AMPARAMS|DCode=42|XSize=47.37mil|YSize=65.09mil|CornerRadius=0mil|HoleSize=0mil|Usage=FLASHONLY|Rotation=62.000|XOffset=0mil|YOffset=0mil|HoleType=Round|Shape=Rectangle|*
%AMROTATEDRECTD42*
4,1,4,0.01761,-0.03619,-0.03985,-0.00564,-0.01761,0.03619,0.03985,0.00564,0.01761,-0.03619,0.0*
%
%ADD42ROTATEDRECTD42*%

%ADD43C,0.07874*%
%ADD44R,0.11824X0.04737*%
G04:AMPARAMS|DCode=45|XSize=23.75mil|YSize=55.24mil|CornerRadius=0mil|HoleSize=0mil|Usage=FLASHONLY|Rotation=315.000|XOffset=0mil|YOffset=0mil|HoleType=Round|Shape=Rectangle|*
%AMROTATEDRECTD45*
4,1,4,-0.02793,-0.01114,0.01114,0.02793,0.02793,0.01114,-0.01114,-0.02793,-0.02793,-0.01114,0.0*
%
%ADD45ROTATEDRECTD45*%

G04:AMPARAMS|DCode=46|XSize=41.47mil|YSize=32.8mil|CornerRadius=0mil|HoleSize=0mil|Usage=FLASHONLY|Rotation=315.000|XOffset=0mil|YOffset=0mil|HoleType=Round|Shape=Rectangle|*
%AMROTATEDRECTD46*
4,1,4,-0.02626,0.00306,-0.00306,0.02626,0.02626,-0.00306,0.00306,-0.02626,-0.02626,0.00306,0.0*
%
%ADD46ROTATEDRECTD46*%

D10*
X1304206Y1071304D02*
D03*
X1325554Y1049955D02*
D03*
D11*
X1301108Y1087563D02*
D03*
X1217146Y1133975D02*
D03*
X1320546Y1107375D02*
D03*
D31*
X1280446Y1081675D02*
D03*
D32*
X1291246Y1074475D02*
D03*
D33*
X1211357Y1113172D02*
D03*
D34*
X1269346Y1088375D02*
D03*
D35*
X1200174Y1116267D02*
D03*
D36*
X1258246Y1094775D02*
D03*
D37*
X1234146Y1105575D02*
D03*
D38*
X1246099Y1100553D02*
D03*
D39*
X1222568Y1109568D02*
D03*
D40*
X1241888Y1126568D02*
D03*
X1239207Y1119584D02*
D03*
D41*
X1252465Y1114686D02*
D03*
X1255626Y1121465D02*
D03*
D42*
X1269000Y1114178D02*
D03*
X1265488Y1107573D02*
D03*
D43*
X1351946Y1073375D02*
D03*
X1238046Y1155375D02*
D03*
X1168446Y1120975D02*
D03*
D44*
X1203782Y1164638D02*
D03*
Y1148890D02*
D03*
X1180948Y1164638D02*
D03*
Y1148890D02*
D03*
D45*
X1311036Y1059738D02*
D03*
X1313987Y1056787D02*
D03*
X1315880Y1054894D02*
D03*
X1309143Y1061631D02*
D03*
D46*
X1308830Y1066356D02*
D03*
X1320606Y1054580D02*
D03*
M02*
