G04*
G04 #@! TF.GenerationSoftware,Altium Limited,Altium Designer,22.1.2 (22)*
G04*
G04 Layer_Color=32896*
%FSAX25Y25*%
%MOIN*%
G70*
G04*
G04 #@! TF.SameCoordinates,6FBED77C-4E5F-4823-83EA-BC97D1DA3100*
G04*
G04*
G04 #@! TF.FilePolarity,Positive*
G04*
G01*
G75*
%ADD47C,0.00787*%
%ADD48C,0.00394*%
%ADD49C,0.00500*%
%ADD50C,0.01000*%
D47*
X1311514Y1068006D02*
G03*
X1311514Y1068006I-0000394J0000000D01*
G01*
D48*
X1304510Y1063761D02*
X1318012Y1050259D01*
X1322814Y1055062D01*
X1304510Y1063761D02*
X1309312Y1068563D01*
X1322814Y1055062D01*
X1234947Y1118373D02*
X1241563Y1115834D01*
X1239532Y1130319D02*
X1246148Y1127779D01*
X1234947Y1118373D02*
X1239532Y1130319D01*
X1241563Y1115834D02*
X1246148Y1127779D01*
X1254553Y1110780D02*
X1259961Y1122376D01*
X1248131Y1113775D02*
X1253538Y1125371D01*
X1259961Y1122376D01*
X1248131Y1113775D02*
X1254553Y1110780D01*
X1261112Y1106890D02*
X1267369Y1103563D01*
X1267119Y1118188D02*
X1273376Y1114861D01*
X1261112Y1106890D02*
X1267119Y1118188D01*
X1267369Y1103563D02*
X1273376Y1114861D01*
X1205554Y1168772D02*
X1205554Y1144757D01*
X1179176Y1168772D02*
X1205554Y1168772D01*
X1179176Y1168772D02*
X1179176Y1144757D01*
X1205554Y1144757D01*
D49*
X1305503Y1063642D02*
X1306756Y1064895D01*
X1317892Y1051254D02*
X1319145Y1052507D01*
X1312059Y1065438D02*
X1319687Y1057810D01*
X1305503Y1063642D02*
X1306882Y1062264D01*
X1316514Y1052632D02*
X1317892Y1051254D01*
D50*
X1344265Y1064298D02*
X1341735Y1067313D01*
X1340228Y1066048D01*
X1340147Y1065124D01*
X1340990Y1064119D01*
X1341915Y1064038D01*
X1343422Y1065303D01*
X1341250Y1061768D02*
X1340245Y1060925D01*
X1340748Y1061346D01*
X1339061Y1063356D01*
X1339564Y1063778D01*
X1339581Y1058655D02*
X1337051Y1061670D01*
X1335544Y1060405D01*
X1335463Y1059481D01*
X1336306Y1058476D01*
X1337230Y1058395D01*
X1338738Y1059660D01*
X1334216Y1055865D02*
X1335221Y1056708D01*
X1335301Y1057632D01*
X1334458Y1058637D01*
X1333534Y1058718D01*
X1332529Y1057875D01*
X1332448Y1056951D01*
X1332870Y1056448D01*
X1334880Y1058135D01*
X1214789Y1158932D02*
Y1155652D01*
X1214133Y1154996D01*
X1212821D01*
X1212165Y1155652D01*
Y1158932D01*
X1210853Y1154996D02*
X1209541D01*
X1210197D01*
Y1158932D01*
X1210853Y1158276D01*
X1241652Y1131502D02*
X1245326Y1130091D01*
X1246031Y1131928D01*
X1245654Y1132776D01*
X1244429Y1133246D01*
X1243582Y1132869D01*
X1242876Y1131031D01*
X1243347Y1132256D02*
X1242592Y1133951D01*
X1246124Y1134000D02*
X1246972Y1134378D01*
X1247442Y1135603D01*
X1247064Y1136450D01*
X1246452Y1136685D01*
X1245604Y1136308D01*
X1245369Y1135695D01*
X1245604Y1136308D01*
X1245227Y1137155D01*
X1244615Y1137390D01*
X1243767Y1137013D01*
X1243297Y1135788D01*
X1243674Y1134941D01*
X1256076Y1126335D02*
X1259643Y1124671D01*
X1260475Y1126455D01*
X1260158Y1127326D01*
X1258969Y1127881D01*
X1258097Y1127564D01*
X1257265Y1125780D01*
X1257820Y1126969D02*
X1257185Y1128713D01*
X1258848Y1132280D02*
X1257740Y1129902D01*
X1261226Y1131171D01*
X1261821Y1130894D01*
X1262138Y1130022D01*
X1261584Y1128833D01*
X1260712Y1128516D01*
X1269577Y1119083D02*
X1273052Y1117235D01*
X1273975Y1118972D01*
X1273704Y1119860D01*
X1272546Y1120475D01*
X1271659Y1120204D01*
X1270735Y1118467D01*
X1271351Y1119625D02*
X1270808Y1121399D01*
X1271424Y1122558D02*
X1272040Y1123716D01*
X1271732Y1123137D01*
X1275207Y1121289D01*
X1274320Y1121018D01*
X1282853Y1088418D02*
X1286077Y1086160D01*
X1287205Y1087772D01*
X1287044Y1088686D01*
X1285970Y1089438D01*
X1285056Y1089277D01*
X1283927Y1087665D01*
X1285647Y1091265D02*
X1285486Y1092179D01*
X1286239Y1093254D01*
X1287152Y1093414D01*
X1289302Y1091910D01*
X1289463Y1090996D01*
X1288710Y1089921D01*
X1287797Y1089760D01*
X1287259Y1090137D01*
X1287098Y1091050D01*
X1288227Y1092662D01*
X1290100Y1083840D02*
X1293244Y1081472D01*
X1294428Y1083043D01*
X1294299Y1083962D01*
X1293251Y1084752D01*
X1292332Y1084622D01*
X1291148Y1083051D01*
X1295088Y1085010D02*
X1296007Y1085139D01*
X1296797Y1086187D01*
X1296667Y1087105D01*
X1296144Y1087500D01*
X1295225Y1087371D01*
X1295096Y1088290D01*
X1294572Y1088684D01*
X1293653Y1088555D01*
X1292864Y1087508D01*
X1292993Y1086589D01*
X1293517Y1086194D01*
X1294435Y1086323D01*
X1294565Y1085405D01*
X1295088Y1085010D01*
X1294435Y1086323D02*
X1295225Y1087371D01*
X1211450Y1120365D02*
X1215234Y1119280D01*
X1215776Y1121172D01*
X1215326Y1121983D01*
X1214065Y1122345D01*
X1213254Y1121895D01*
X1212711Y1120004D01*
X1216318Y1123064D02*
X1217042Y1125586D01*
X1216411Y1125767D01*
X1213166Y1123968D01*
X1212535Y1124148D01*
X1271739Y1095337D02*
X1275077Y1093251D01*
X1276120Y1094920D01*
X1275911Y1095824D01*
X1274798Y1096519D01*
X1273894Y1096311D01*
X1272852Y1094642D01*
X1278553Y1098814D02*
X1277301Y1098049D01*
X1275494Y1097632D01*
X1274381Y1098327D01*
X1274172Y1099231D01*
X1274867Y1100343D01*
X1275771Y1100552D01*
X1276328Y1100204D01*
X1276536Y1099301D01*
X1275494Y1097632D01*
X1190096Y1115817D02*
X1193898Y1114798D01*
X1194407Y1116699D01*
X1193943Y1117502D01*
X1192676Y1117842D01*
X1191873Y1117378D01*
X1191363Y1115477D01*
X1195596Y1121134D02*
X1194917Y1118600D01*
X1193016Y1119109D01*
X1193989Y1120207D01*
X1194159Y1120840D01*
X1193695Y1121644D01*
X1192428Y1121983D01*
X1191624Y1121519D01*
X1191285Y1120252D01*
X1191748Y1119449D01*
X1253569Y1104703D02*
X1257044Y1102856D01*
X1257967Y1104593D01*
X1257696Y1105480D01*
X1256538Y1106096D01*
X1255651Y1105825D01*
X1254727Y1104088D01*
X1256340Y1109916D02*
X1259815Y1108068D01*
X1257154Y1107255D01*
X1258386Y1109571D01*
X1227833Y1114819D02*
X1231508Y1113408D01*
X1232213Y1115245D01*
X1231836Y1116093D01*
X1230611Y1116563D01*
X1229763Y1116186D01*
X1229058Y1114349D01*
X1232306Y1117318D02*
X1233153Y1117695D01*
X1233623Y1118920D01*
X1233246Y1119767D01*
X1232634Y1120002D01*
X1231786Y1119625D01*
X1231551Y1119013D01*
X1231786Y1119625D01*
X1231409Y1120473D01*
X1230797Y1120708D01*
X1229949Y1120330D01*
X1229479Y1119105D01*
X1229856Y1118258D01*
X1240576Y1110135D02*
X1244143Y1108471D01*
X1244975Y1110255D01*
X1244658Y1111127D01*
X1243469Y1111681D01*
X1242597Y1111364D01*
X1241765Y1109580D01*
X1243349Y1116080D02*
X1242240Y1113702D01*
X1245726Y1114971D01*
X1246321Y1114694D01*
X1246638Y1113822D01*
X1246084Y1112633D01*
X1245212Y1112315D01*
X1219431Y1117735D02*
X1223152Y1116454D01*
X1223793Y1118314D01*
X1223386Y1119148D01*
X1222146Y1119575D01*
X1221312Y1119169D01*
X1220671Y1117308D01*
X1220712Y1121457D02*
X1221140Y1122697D01*
X1220926Y1122077D01*
X1224647Y1120795D01*
X1223814Y1120389D01*
X1320410Y1069222D02*
X1323193Y1066439D01*
X1321801Y1065048D01*
X1320874D01*
X1319018Y1066903D01*
Y1067831D01*
X1320410Y1069222D01*
Y1063656D02*
X1319482Y1062729D01*
X1319946Y1063192D01*
X1317163Y1065975D01*
X1318091D01*
M02*
