G04*
G04 #@! TF.GenerationSoftware,Altium Limited,Altium Designer,22.1.2 (22)*
G04*
G04 Layer_Physical_Order=1*
G04 Layer_Color=255*
%FSAX25Y25*%
%MOIN*%
G70*
G04*
G04 #@! TF.SameCoordinates,09923BD8-D51D-40D0-B587-3D677710EE75*
G04*
G04*
G04 #@! TF.FilePolarity,Positive*
G04*
G01*
G75*
%ADD12C,0.01500*%
%ADD13C,0.06000*%
%ADD14C,0.05800*%
G36*
X1184031Y1173613D02*
X1194567Y1171905D01*
X1203357Y1170157D01*
X1203364Y1170154D01*
X1203774Y1170067D01*
X1203807Y1170066D01*
X1204999Y1169829D01*
X1215067Y1167450D01*
X1225043Y1164713D01*
X1228443Y1163649D01*
Y1163649D01*
X1228801Y1163555D01*
X1228928Y1163542D01*
X1234163Y1161820D01*
X1234638Y1161664D01*
X1235118Y1161523D01*
X1235402Y1161428D01*
X1236204Y1161157D01*
X1237008Y1160883D01*
X1237809Y1160607D01*
X1238610Y1160329D01*
X1239412Y1160047D01*
X1239696Y1159947D01*
X1240210Y1159764D01*
X1240368Y1159708D01*
X1240867Y1159529D01*
X1241519Y1159294D01*
X1242175Y1159056D01*
X1242826Y1158817D01*
X1243699Y1158495D01*
X1244566Y1158171D01*
X1245438Y1157842D01*
X1245784Y1157710D01*
X1246063Y1157604D01*
X1246135Y1157576D01*
X1246208Y1157549D01*
X1246281Y1157521D01*
X1246281D01*
X1246300Y1157514D01*
X1247162Y1157181D01*
X1248026Y1156846D01*
X1248883Y1156509D01*
X1249745Y1156167D01*
X1250239Y1155969D01*
X1250603Y1155823D01*
X1251462Y1155476D01*
X1252316Y1155127D01*
X1253170Y1154775D01*
X1254025Y1154419D01*
X1254876Y1154061D01*
X1255729Y1153698D01*
X1255810Y1153682D01*
X1255879Y1153635D01*
X1255880Y1153634D01*
X1255880Y1153634D01*
X1255885Y1153632D01*
X1256576Y1153336D01*
X1256576Y1153335D01*
X1256579Y1153334D01*
X1257425Y1152968D01*
X1257433Y1152964D01*
X1257858Y1152779D01*
X1258273Y1152598D01*
X1259118Y1152225D01*
X1259118Y1152225D01*
X1259259Y1152162D01*
X1259714Y1151955D01*
Y1151955D01*
X1259714Y1151955D01*
X1266734Y1148734D01*
X1275418Y1144351D01*
X1281982Y1140723D01*
X1281982Y1140723D01*
X1282420Y1140482D01*
X1283115Y1140085D01*
X1283870Y1139651D01*
X1284614Y1139219D01*
X1285361Y1138782D01*
X1286066Y1138367D01*
X1286073Y1138341D01*
Y1138341D01*
X1289449Y1136363D01*
X1291443Y1135086D01*
X1291443Y1135086D01*
X1291453Y1135089D01*
X1291994Y1134749D01*
X1291994Y1134749D01*
X1292722Y1134289D01*
X1293451Y1133825D01*
X1294177Y1133359D01*
X1294862Y1132916D01*
X1294881Y1132904D01*
X1294881Y1132904D01*
X1294881Y1132904D01*
X1294900Y1132891D01*
X1295623Y1132420D01*
X1296345Y1131946D01*
X1297066Y1131469D01*
X1297785Y1130990D01*
X1298506Y1130505D01*
X1299226Y1130018D01*
X1299940Y1129531D01*
X1300653Y1129041D01*
X1301367Y1128546D01*
X1302074Y1128053D01*
X1302781Y1127555D01*
X1303487Y1127056D01*
X1304188Y1126555D01*
X1304887Y1126052D01*
X1305588Y1125545D01*
X1306282Y1125038D01*
X1306978Y1124526D01*
X1307673Y1124011D01*
X1308363Y1123495D01*
X1309054Y1122976D01*
X1309741Y1122455D01*
X1310427Y1121931D01*
X1311111Y1121406D01*
X1311794Y1120876D01*
X1312473Y1120346D01*
X1313154Y1119810D01*
X1313829Y1119275D01*
X1314614Y1118649D01*
X1315393Y1118021D01*
X1316173Y1117387D01*
X1316949Y1116751D01*
X1317724Y1116110D01*
X1318491Y1115470D01*
X1319256Y1114827D01*
X1320018Y1114181D01*
X1320777Y1113531D01*
X1321534Y1112878D01*
X1322162Y1112332D01*
X1322789Y1111783D01*
X1323413Y1111233D01*
X1324037Y1110678D01*
X1324656Y1110125D01*
X1325276Y1109565D01*
X1325892Y1109007D01*
X1326507Y1108444D01*
X1327119Y1107881D01*
X1327731Y1107314D01*
X1328339Y1106745D01*
X1328946Y1106175D01*
X1329626Y1105530D01*
X1330306Y1104881D01*
X1330981Y1104232D01*
X1331655Y1103578D01*
X1331760Y1103475D01*
X1331798Y1103438D01*
X1332149Y1103081D01*
X1332149Y1103081D01*
X1333794Y1101500D01*
X1340182Y1094855D01*
X1346305Y1087965D01*
X1352153Y1080840D01*
X1357716Y1073491D01*
X1358537Y1072313D01*
X1328847Y1046906D01*
X1328477Y1047221D01*
X1329004Y1048133D01*
X1329276Y1049150D01*
Y1050203D01*
X1329004Y1051221D01*
X1328477Y1052133D01*
X1327732Y1052877D01*
X1326820Y1053404D01*
X1325803Y1053677D01*
X1324749D01*
X1323732Y1053404D01*
X1322820Y1052877D01*
X1322075Y1052133D01*
X1321549Y1051221D01*
X1321276Y1050203D01*
Y1049150D01*
X1321549Y1048133D01*
X1322075Y1047221D01*
X1322820Y1046476D01*
X1323732Y1045949D01*
X1324749Y1045677D01*
X1325803D01*
X1326820Y1045949D01*
X1327249Y1046197D01*
X1327539Y1045787D01*
X1320741Y1039970D01*
X1320597Y1040120D01*
X1319614Y1041061D01*
X1319263Y1041414D01*
X1319253Y1041428D01*
X1318905Y1041762D01*
X1316315Y1044248D01*
X1316197Y1044363D01*
X1316197Y1044363D01*
X1316196Y1044364D01*
X1316087Y1044470D01*
X1316086Y1044471D01*
X1316085Y1044472D01*
X1315408Y1045129D01*
X1315405Y1045131D01*
X1315404Y1045134D01*
X1314724Y1045788D01*
X1314721Y1045790D01*
X1314720Y1045792D01*
X1314038Y1046444D01*
X1314035Y1046445D01*
X1314033Y1046448D01*
X1313348Y1047097D01*
X1313346Y1047098D01*
X1313344Y1047101D01*
X1312733Y1047675D01*
X1312731Y1047677D01*
X1312729Y1047679D01*
X1312117Y1048251D01*
X1312114Y1048253D01*
X1312113Y1048255D01*
X1311498Y1048825D01*
X1311495Y1048826D01*
X1311494Y1048829D01*
X1310877Y1049396D01*
X1310875Y1049398D01*
X1310873Y1049400D01*
X1310254Y1049966D01*
X1310252Y1049967D01*
X1310250Y1049969D01*
X1309629Y1050533D01*
X1309627Y1050534D01*
X1309625Y1050536D01*
X1309002Y1051098D01*
X1309000Y1051099D01*
X1308998Y1051101D01*
X1308374Y1051660D01*
X1308371Y1051662D01*
X1308370Y1051664D01*
X1307743Y1052221D01*
X1307741Y1052222D01*
X1307739Y1052224D01*
X1307110Y1052779D01*
X1307108Y1052780D01*
X1307106Y1052782D01*
X1306476Y1053335D01*
X1306473Y1053336D01*
X1306472Y1053338D01*
X1305839Y1053888D01*
X1305836Y1053890D01*
X1305835Y1053892D01*
X1305073Y1054549D01*
X1305070Y1054551D01*
X1305068Y1054553D01*
X1304304Y1055207D01*
X1304301Y1055209D01*
X1304299Y1055211D01*
X1303532Y1055862D01*
X1303529Y1055864D01*
X1303527Y1055866D01*
X1302757Y1056514D01*
X1302754Y1056515D01*
X1302752Y1056518D01*
X1301980Y1057162D01*
X1301977Y1057163D01*
X1301975Y1057166D01*
X1301196Y1057810D01*
X1301194Y1057811D01*
X1301192Y1057814D01*
X1300410Y1058454D01*
X1300407Y1058456D01*
X1300405Y1058458D01*
X1299621Y1059095D01*
X1299618Y1059097D01*
X1299616Y1059099D01*
X1298830Y1059733D01*
X1298827Y1059735D01*
X1298825Y1059737D01*
X1298035Y1060368D01*
X1298033Y1060369D01*
X1298031Y1060371D01*
X1297350Y1060911D01*
X1297347Y1060912D01*
X1297346Y1060914D01*
X1296663Y1061451D01*
X1296660Y1061452D01*
X1296659Y1061455D01*
X1295974Y1061989D01*
X1295971Y1061990D01*
X1295969Y1061992D01*
X1295283Y1062525D01*
X1295280Y1062526D01*
X1295278Y1062528D01*
X1294590Y1063058D01*
X1294588Y1063059D01*
X1294586Y1063061D01*
X1293895Y1063588D01*
X1293893Y1063589D01*
X1293891Y1063591D01*
X1293199Y1064116D01*
X1293196Y1064117D01*
X1293194Y1064119D01*
X1292500Y1064641D01*
X1292498Y1064642D01*
X1292496Y1064644D01*
X1291800Y1065164D01*
X1291798Y1065165D01*
X1291796Y1065167D01*
X1291098Y1065684D01*
X1291095Y1065686D01*
X1291093Y1065688D01*
X1290394Y1066202D01*
X1290391Y1066203D01*
X1290389Y1066205D01*
X1289688Y1066718D01*
X1289686Y1066719D01*
X1289684Y1066721D01*
X1288980Y1067230D01*
X1288978Y1067231D01*
X1288976Y1067233D01*
X1288271Y1067740D01*
X1288268Y1067742D01*
X1288267Y1067744D01*
X1287560Y1068248D01*
X1287557Y1068249D01*
X1287555Y1068251D01*
X1286847Y1068753D01*
X1286844Y1068754D01*
X1286842Y1068756D01*
X1286132Y1069256D01*
X1286129Y1069257D01*
X1286128Y1069259D01*
X1285415Y1069756D01*
X1285413Y1069757D01*
X1285411Y1069759D01*
X1284694Y1070256D01*
X1284691Y1070257D01*
X1284690Y1070259D01*
X1283971Y1070753D01*
X1283968Y1070754D01*
X1283966Y1070756D01*
X1283245Y1071247D01*
X1283243Y1071249D01*
X1283241Y1071251D01*
X1282519Y1071739D01*
X1282516Y1071741D01*
X1282514Y1071743D01*
X1281790Y1072229D01*
X1281788Y1072230D01*
X1281786Y1072232D01*
X1281060Y1072716D01*
X1281057Y1072717D01*
X1281056Y1072719D01*
X1280332Y1073198D01*
X1280329Y1073199D01*
X1280327Y1073201D01*
X1279601Y1073677D01*
X1279599Y1073678D01*
X1279597Y1073680D01*
X1278869Y1074154D01*
X1278868Y1074155D01*
X1278867Y1074156D01*
X1278846Y1074169D01*
X1278846Y1074169D01*
X1278827Y1074182D01*
X1278827Y1074182D01*
X1278826Y1074182D01*
X1278751Y1074231D01*
X1278751Y1074231D01*
X1278751Y1074231D01*
X1278676Y1074280D01*
X1278676Y1074280D01*
X1278676Y1074280D01*
X1278601Y1074328D01*
X1278601Y1074328D01*
X1278601Y1074328D01*
X1278528Y1074376D01*
X1278528Y1074376D01*
X1278527Y1074376D01*
X1278453Y1074424D01*
X1278452Y1074424D01*
X1278452Y1074425D01*
X1278378Y1074472D01*
X1278378Y1074472D01*
X1278378Y1074473D01*
X1278305Y1074519D01*
X1278305Y1074520D01*
X1278305Y1074520D01*
X1278234Y1074566D01*
X1278234Y1074566D01*
X1278233Y1074566D01*
X1278165Y1074610D01*
X1278165Y1074610D01*
X1278165Y1074610D01*
X1278136Y1074629D01*
X1278136Y1074629D01*
X1278134Y1074630D01*
X1278133Y1074630D01*
X1278131Y1074632D01*
X1277401Y1075101D01*
X1277399Y1075101D01*
X1277397Y1075103D01*
X1277363Y1075124D01*
X1277363Y1075125D01*
X1277363Y1075125D01*
X1277339Y1075140D01*
X1277317Y1075154D01*
X1277317Y1075154D01*
X1277317Y1075154D01*
X1277298Y1075166D01*
X1277283Y1075176D01*
X1277282Y1075176D01*
X1277282Y1075176D01*
X1277269Y1075185D01*
X1277269Y1075185D01*
X1277269Y1075185D01*
X1277260Y1075190D01*
X1277260Y1075190D01*
X1277254Y1075194D01*
X1277254Y1075194D01*
X1277251Y1075196D01*
X1277250Y1075196D01*
X1277250Y1075197D01*
X1277249Y1075198D01*
X1277248Y1075198D01*
X1277248Y1075198D01*
X1277247Y1075199D01*
X1277242Y1075202D01*
X1277242Y1075202D01*
X1277242Y1075202D01*
X1277227Y1075212D01*
X1277226Y1075212D01*
X1277226Y1075212D01*
X1277213Y1075220D01*
X1277213Y1075220D01*
X1277213Y1075221D01*
X1277179Y1075242D01*
X1277179Y1075242D01*
X1277179Y1075242D01*
X1277134Y1075271D01*
X1277134Y1075271D01*
X1277134Y1075271D01*
X1277080Y1075305D01*
X1277079Y1075305D01*
X1277079Y1075306D01*
X1277048Y1075325D01*
X1277048Y1075325D01*
X1277015Y1075347D01*
X1277014Y1075347D01*
X1277014Y1075347D01*
X1276978Y1075370D01*
X1276978Y1075370D01*
X1276978Y1075370D01*
X1276939Y1075395D01*
X1276939Y1075395D01*
X1276939Y1075395D01*
X1276898Y1075421D01*
X1276898Y1075421D01*
X1276897Y1075421D01*
X1276854Y1075449D01*
X1276854Y1075449D01*
X1276854Y1075449D01*
X1276809Y1075478D01*
X1276809Y1075478D01*
X1276762Y1075508D01*
X1276762Y1075508D01*
X1276761Y1075508D01*
X1276662Y1075571D01*
X1276661Y1075571D01*
X1276659Y1075572D01*
X1275926Y1076036D01*
X1275923Y1076037D01*
X1275922Y1076039D01*
X1275890Y1076059D01*
X1275890Y1076059D01*
X1275890Y1076059D01*
X1275816Y1076106D01*
X1275815Y1076106D01*
X1275815Y1076106D01*
X1275740Y1076153D01*
X1275740Y1076153D01*
X1275740Y1076153D01*
X1275665Y1076200D01*
X1275665Y1076200D01*
X1275664Y1076201D01*
X1275589Y1076248D01*
X1275589Y1076248D01*
X1275589Y1076248D01*
X1275513Y1076295D01*
X1275513Y1076296D01*
X1275512Y1076296D01*
X1275376Y1076381D01*
X1275371Y1076384D01*
X1275371Y1076384D01*
X1275370Y1076385D01*
X1275296Y1076413D01*
X1273343Y1077664D01*
X1270042Y1079598D01*
X1269940Y1079690D01*
X1269909Y1079708D01*
X1269909Y1079708D01*
X1269909Y1079708D01*
X1269833Y1079753D01*
X1269832Y1079753D01*
X1269832Y1079753D01*
X1269756Y1079798D01*
X1269756Y1079798D01*
X1269756Y1079799D01*
X1269680Y1079843D01*
X1269680Y1079843D01*
X1269679Y1079844D01*
X1269604Y1079888D01*
X1269604Y1079888D01*
X1269603Y1079888D01*
X1269526Y1079934D01*
X1269526Y1079934D01*
X1269526Y1079934D01*
X1269449Y1079979D01*
X1269449Y1079979D01*
X1269449Y1079980D01*
X1269373Y1080024D01*
X1269373Y1080024D01*
X1269372Y1080024D01*
X1269298Y1080068D01*
X1269297Y1080068D01*
X1269297Y1080069D01*
X1269225Y1080111D01*
X1269225Y1080111D01*
X1269211Y1080119D01*
X1269211Y1080119D01*
X1269209Y1080120D01*
X1269207Y1080121D01*
X1269205Y1080122D01*
X1268456Y1080561D01*
X1268454Y1080561D01*
X1268453Y1080562D01*
X1268431Y1080575D01*
X1268431Y1080575D01*
X1268431Y1080575D01*
X1268431Y1080575D01*
X1268385Y1080602D01*
X1268385Y1080602D01*
X1268385Y1080602D01*
X1268343Y1080626D01*
X1268343Y1080627D01*
X1268343Y1080627D01*
X1268306Y1080648D01*
X1268306Y1080648D01*
X1268272Y1080668D01*
X1268272Y1080668D01*
X1268271Y1080668D01*
X1268241Y1080686D01*
X1268212Y1080702D01*
X1268212Y1080703D01*
X1268211Y1080703D01*
X1268186Y1080718D01*
X1268162Y1080731D01*
X1268162Y1080732D01*
X1268162Y1080732D01*
X1268142Y1080744D01*
X1268141Y1080744D01*
X1268113Y1080760D01*
X1268112Y1080760D01*
X1268112Y1080761D01*
X1268103Y1080766D01*
X1268093Y1080772D01*
X1268091Y1080772D01*
X1268090Y1080774D01*
X1268088Y1080775D01*
X1268088Y1080775D01*
X1268079Y1080780D01*
X1268077Y1080781D01*
X1268077Y1080781D01*
X1268037Y1080804D01*
X1268037Y1080804D01*
X1268037Y1080804D01*
X1267995Y1080828D01*
X1267995Y1080828D01*
X1267995Y1080829D01*
X1267971Y1080843D01*
X1267971Y1080843D01*
X1267971Y1080843D01*
X1267944Y1080858D01*
X1267944Y1080858D01*
X1267944Y1080858D01*
X1267914Y1080875D01*
X1267914Y1080876D01*
X1267914Y1080876D01*
X1267846Y1080915D01*
X1267846Y1080915D01*
X1267846Y1080915D01*
X1267808Y1080937D01*
X1267808Y1080937D01*
X1267807Y1080937D01*
X1267767Y1080961D01*
X1267767Y1080961D01*
X1267767Y1080961D01*
X1267700Y1080999D01*
X1267698Y1081000D01*
X1267696Y1081001D01*
X1266941Y1081436D01*
X1266938Y1081437D01*
X1266936Y1081439D01*
X1266179Y1081871D01*
X1266177Y1081872D01*
X1266175Y1081874D01*
X1266071Y1081933D01*
X1266071Y1081933D01*
X1266070Y1081933D01*
X1265793Y1082090D01*
X1265712Y1082117D01*
X1259143Y1085748D01*
X1250358Y1090183D01*
X1243320Y1093411D01*
X1243260Y1093454D01*
X1243015Y1093563D01*
X1243015Y1093563D01*
X1243014Y1093563D01*
X1243014Y1093563D01*
X1242938Y1093597D01*
X1242937Y1093597D01*
X1242937Y1093597D01*
X1242937Y1093597D01*
X1242862Y1093631D01*
X1242861Y1093631D01*
X1242861Y1093631D01*
X1242786Y1093664D01*
X1242786Y1093664D01*
X1242786Y1093665D01*
X1242711Y1093697D01*
X1242711Y1093697D01*
X1242711Y1093698D01*
X1242658Y1093721D01*
X1242656Y1093721D01*
X1242655Y1093723D01*
X1242635Y1093731D01*
X1242635Y1093731D01*
X1242635Y1093731D01*
X1242561Y1093764D01*
X1242560Y1093764D01*
X1242560Y1093764D01*
X1242487Y1093797D01*
X1242487Y1093797D01*
X1242486Y1093797D01*
X1242414Y1093829D01*
X1242414Y1093829D01*
X1242414Y1093829D01*
X1242346Y1093859D01*
X1242345Y1093859D01*
X1242345Y1093859D01*
X1242278Y1093889D01*
X1242278Y1093889D01*
X1242278Y1093889D01*
X1242212Y1093918D01*
X1242212Y1093918D01*
X1242212Y1093918D01*
X1242148Y1093946D01*
X1242148Y1093946D01*
X1242148Y1093946D01*
X1242084Y1093974D01*
X1242084Y1093974D01*
X1242084Y1093975D01*
X1242023Y1094002D01*
X1242022Y1094002D01*
X1242022Y1094002D01*
X1241963Y1094028D01*
X1241963Y1094028D01*
X1241963Y1094028D01*
X1241906Y1094053D01*
X1241905Y1094053D01*
X1241853Y1094076D01*
X1241853Y1094076D01*
X1241803Y1094098D01*
X1241801Y1094099D01*
X1241800Y1094100D01*
X1241755Y1094119D01*
X1241755Y1094119D01*
X1241710Y1094139D01*
X1241710Y1094139D01*
X1241710Y1094139D01*
X1241666Y1094158D01*
X1241666Y1094158D01*
X1241666Y1094158D01*
X1241625Y1094176D01*
X1241625Y1094176D01*
X1241625Y1094176D01*
X1241587Y1094193D01*
X1241587Y1094193D01*
X1241587Y1094193D01*
X1241552Y1094208D01*
X1241552Y1094208D01*
X1241522Y1094221D01*
X1241522Y1094221D01*
X1241522Y1094221D01*
X1241494Y1094233D01*
X1241494Y1094233D01*
X1241494Y1094233D01*
X1241470Y1094244D01*
X1241470Y1094244D01*
X1241470Y1094244D01*
X1241448Y1094254D01*
X1241448Y1094254D01*
X1241448Y1094254D01*
X1241448Y1094254D01*
X1241414Y1094269D01*
X1241414Y1094269D01*
X1241414Y1094269D01*
X1241414Y1094269D01*
X1241401Y1094274D01*
X1241401Y1094274D01*
X1241401Y1094274D01*
X1241401Y1094274D01*
X1241389Y1094279D01*
X1241389Y1094279D01*
X1241385Y1094281D01*
X1241385Y1094281D01*
X1241382Y1094282D01*
X1241382Y1094282D01*
X1241382Y1094283D01*
X1241382Y1094283D01*
X1241371Y1094287D01*
X1241371Y1094287D01*
X1241370Y1094288D01*
X1241370Y1094288D01*
X1241345Y1094299D01*
X1241345Y1094299D01*
X1241345Y1094299D01*
X1241328Y1094306D01*
X1241327Y1094306D01*
X1241327Y1094306D01*
X1241307Y1094315D01*
X1241307Y1094315D01*
X1241283Y1094326D01*
X1241283Y1094326D01*
X1241283Y1094326D01*
X1241257Y1094337D01*
X1241257Y1094337D01*
X1241257Y1094337D01*
X1241228Y1094350D01*
X1241228Y1094350D01*
X1241196Y1094364D01*
X1241196Y1094364D01*
X1241196Y1094364D01*
X1241162Y1094379D01*
X1241161Y1094379D01*
X1241161Y1094379D01*
X1241082Y1094413D01*
X1241082Y1094413D01*
X1241082Y1094413D01*
X1241038Y1094432D01*
X1241038Y1094432D01*
X1241038Y1094433D01*
X1240992Y1094453D01*
X1240992Y1094453D01*
X1240944Y1094473D01*
X1240943Y1094474D01*
X1240942Y1094474D01*
X1240894Y1094495D01*
X1240893Y1094495D01*
X1240841Y1094518D01*
X1240841Y1094518D01*
X1240841Y1094518D01*
X1240786Y1094542D01*
X1240786Y1094542D01*
X1240786Y1094542D01*
X1240728Y1094567D01*
X1240727Y1094567D01*
X1240669Y1094592D01*
X1240667Y1094594D01*
X1240605Y1094620D01*
X1240603Y1094621D01*
X1240543Y1094647D01*
X1240541Y1094648D01*
X1240476Y1094676D01*
X1240476Y1094676D01*
X1240476Y1094676D01*
X1240409Y1094705D01*
X1240409Y1094705D01*
X1240409Y1094705D01*
X1240341Y1094735D01*
X1240341Y1094735D01*
X1240341Y1094735D01*
X1240272Y1094765D01*
X1240271Y1094765D01*
X1240271Y1094765D01*
X1240199Y1094796D01*
X1240198Y1094796D01*
X1240125Y1094828D01*
X1240125Y1094828D01*
X1240088Y1094844D01*
X1240088Y1094844D01*
X1240087Y1094844D01*
X1240050Y1094860D01*
X1240050Y1094860D01*
X1240050Y1094860D01*
X1239974Y1094893D01*
X1239974Y1094893D01*
X1239974Y1094893D01*
X1239901Y1094924D01*
X1239900Y1094924D01*
X1239900Y1094925D01*
X1239826Y1094956D01*
X1239826Y1094956D01*
X1239826Y1094956D01*
X1239752Y1094988D01*
X1239752Y1094988D01*
X1239751Y1094989D01*
X1239677Y1095021D01*
X1239676Y1095021D01*
X1239676Y1095021D01*
X1239601Y1095053D01*
X1239601Y1095053D01*
X1239601Y1095053D01*
X1239526Y1095085D01*
X1239526Y1095085D01*
X1239526Y1095085D01*
X1239383Y1095146D01*
X1239297Y1095164D01*
X1239225Y1095214D01*
X1238369Y1095577D01*
X1238366Y1095578D01*
X1238364Y1095579D01*
X1237507Y1095940D01*
X1237504Y1095940D01*
X1237502Y1095942D01*
X1236644Y1096299D01*
X1236641Y1096300D01*
X1236639Y1096301D01*
X1235780Y1096656D01*
X1235777Y1096656D01*
X1235775Y1096658D01*
X1234914Y1097009D01*
X1234912Y1097010D01*
X1234910Y1097011D01*
X1234048Y1097360D01*
X1234046Y1097360D01*
X1234044Y1097361D01*
X1233678Y1097509D01*
X1233677Y1097509D01*
X1233675Y1097509D01*
X1233319Y1097652D01*
X1233318Y1097652D01*
X1233318Y1097652D01*
X1233318Y1097652D01*
X1233241Y1097683D01*
X1233241Y1097683D01*
X1233240Y1097683D01*
X1233240Y1097684D01*
X1233179Y1097708D01*
X1233177Y1097708D01*
X1233175Y1097709D01*
X1232311Y1098052D01*
X1232309Y1098053D01*
X1232307Y1098054D01*
X1232281Y1098064D01*
X1232281Y1098064D01*
X1232281Y1098064D01*
X1232216Y1098090D01*
X1232216Y1098090D01*
X1232216Y1098090D01*
X1232153Y1098115D01*
X1232153Y1098115D01*
X1232152Y1098115D01*
X1232094Y1098138D01*
X1232094Y1098138D01*
X1232094Y1098138D01*
X1232037Y1098160D01*
X1232036Y1098160D01*
X1232036Y1098160D01*
X1231982Y1098182D01*
X1231982Y1098182D01*
X1231982Y1098182D01*
X1231930Y1098202D01*
X1231902Y1098207D01*
X1231878Y1098223D01*
X1231830Y1098242D01*
X1231830Y1098242D01*
X1231829Y1098242D01*
X1231784Y1098260D01*
X1231783Y1098260D01*
X1231783Y1098260D01*
X1231740Y1098277D01*
X1231701Y1098284D01*
X1231666Y1098306D01*
X1231633Y1098319D01*
X1231633Y1098319D01*
X1231633Y1098319D01*
X1231575Y1098341D01*
X1231575Y1098341D01*
X1231575Y1098341D01*
X1231551Y1098351D01*
X1231551Y1098351D01*
X1231550Y1098351D01*
X1231530Y1098359D01*
X1231529Y1098359D01*
X1231512Y1098366D01*
X1231511Y1098366D01*
X1231498Y1098372D01*
X1231497Y1098372D01*
X1231497Y1098372D01*
X1231486Y1098376D01*
X1231486Y1098376D01*
X1231486Y1098376D01*
X1231478Y1098379D01*
X1231478D01*
X1231472Y1098382D01*
X1231472Y1098382D01*
X1231471Y1098382D01*
X1231459Y1098387D01*
X1231458Y1098387D01*
X1231457Y1098388D01*
X1231432Y1098398D01*
X1231432Y1098398D01*
X1231415Y1098404D01*
X1231415Y1098404D01*
X1231414Y1098404D01*
X1231414Y1098405D01*
X1231369Y1098422D01*
X1231369Y1098422D01*
X1231368Y1098422D01*
X1231342Y1098433D01*
X1231342Y1098433D01*
X1231341Y1098433D01*
X1231279Y1098457D01*
X1231279Y1098457D01*
X1231279Y1098457D01*
X1231244Y1098471D01*
X1231244Y1098471D01*
X1231244Y1098471D01*
X1231205Y1098486D01*
X1231205Y1098486D01*
X1231205Y1098486D01*
X1231162Y1098503D01*
X1231161Y1098503D01*
X1231022Y1098557D01*
X1231021Y1098558D01*
X1230970Y1098578D01*
X1230969Y1098578D01*
X1230969Y1098578D01*
X1230916Y1098599D01*
X1230916Y1098599D01*
X1230916Y1098599D01*
X1230860Y1098620D01*
X1230860Y1098620D01*
X1230859Y1098620D01*
X1230800Y1098643D01*
X1230800Y1098643D01*
X1230800Y1098643D01*
X1230738Y1098667D01*
X1230738Y1098668D01*
X1230738Y1098668D01*
X1230674Y1098692D01*
X1230674Y1098692D01*
X1230674Y1098692D01*
X1230609Y1098718D01*
X1230609Y1098718D01*
X1230608Y1098718D01*
X1230569Y1098733D01*
X1230567Y1098733D01*
X1230565Y1098734D01*
X1229698Y1099069D01*
X1229696Y1099069D01*
X1229694Y1099070D01*
X1229675Y1099077D01*
X1229675Y1099077D01*
X1229674Y1099077D01*
X1229674Y1099077D01*
X1229601Y1099105D01*
X1229601Y1099105D01*
X1229601Y1099106D01*
X1229601Y1099106D01*
X1229527Y1099134D01*
X1229527Y1099134D01*
X1229527Y1099134D01*
X1229527Y1099134D01*
X1229475Y1099154D01*
X1229455Y1099162D01*
X1229455Y1099162D01*
X1229454Y1099162D01*
X1229453Y1099162D01*
X1229453Y1099162D01*
X1229173Y1099269D01*
X1229172Y1099269D01*
X1229171Y1099270D01*
X1228823Y1099402D01*
X1228821Y1099402D01*
X1228819Y1099403D01*
X1227946Y1099733D01*
X1227943Y1099733D01*
X1227941Y1099734D01*
X1227067Y1100061D01*
X1227064Y1100061D01*
X1227062Y1100063D01*
X1226187Y1100386D01*
X1226184Y1100387D01*
X1226182Y1100388D01*
X1225525Y1100629D01*
X1225523Y1100629D01*
X1225521Y1100630D01*
X1224863Y1100869D01*
X1224861Y1100869D01*
X1224860Y1100870D01*
X1224201Y1101108D01*
X1224199Y1101108D01*
X1224198Y1101109D01*
X1223697Y1101288D01*
X1223610Y1101301D01*
X1223535Y1101346D01*
X1223018Y1101530D01*
X1223017Y1101530D01*
X1223016Y1101530D01*
X1222729Y1101632D01*
X1222727Y1101632D01*
X1222726Y1101633D01*
X1221921Y1101916D01*
X1221919Y1101916D01*
X1221917Y1101917D01*
X1221111Y1102197D01*
X1221109Y1102197D01*
X1221107Y1102199D01*
X1220301Y1102476D01*
X1220299Y1102477D01*
X1220297Y1102478D01*
X1219490Y1102753D01*
X1219488Y1102753D01*
X1219486Y1102754D01*
X1218678Y1103027D01*
X1218676Y1103027D01*
X1218675Y1103028D01*
X1218177Y1103195D01*
X1218175Y1103195D01*
X1218174Y1103196D01*
X1217910Y1103284D01*
X1217766Y1103302D01*
X1212008Y1105197D01*
X1212002Y1105179D01*
X1212001Y1105179D01*
X1211647Y1105288D01*
X1211523Y1105300D01*
X1208202Y1106340D01*
X1198121Y1109106D01*
X1187947Y1111510D01*
X1186722Y1111754D01*
X1186710Y1111759D01*
X1186300Y1111846D01*
X1186261Y1111847D01*
X1177408Y1113607D01*
X1166765Y1115332D01*
X1161777Y1115958D01*
X1161493Y1116370D01*
X1175514Y1174682D01*
X1184031Y1173613D01*
D02*
G37*
%LPC*%
G36*
X1321059Y1111275D02*
X1320033D01*
X1319041Y1111010D01*
X1318151Y1110496D01*
X1317425Y1109770D01*
X1316912Y1108881D01*
X1316646Y1107889D01*
Y1107417D01*
X1316627Y1107324D01*
X1316625Y1107003D01*
X1316609Y1106730D01*
X1316579Y1106481D01*
X1316537Y1106258D01*
X1316485Y1106058D01*
X1316423Y1105882D01*
X1316353Y1105728D01*
X1316276Y1105594D01*
X1316215Y1105509D01*
X1302891Y1091928D01*
X1302807Y1091866D01*
X1302675Y1091787D01*
X1302522Y1091714D01*
X1302347Y1091648D01*
X1302149Y1091592D01*
X1301926Y1091546D01*
X1301678Y1091511D01*
X1301406Y1091490D01*
X1301084Y1091482D01*
X1300998Y1091463D01*
X1300594D01*
X1299603Y1091197D01*
X1298713Y1090683D01*
X1297987Y1089957D01*
X1297474Y1089068D01*
X1297208Y1088076D01*
Y1087049D01*
X1297474Y1086057D01*
X1297987Y1085168D01*
X1298713Y1084442D01*
X1299603Y1083928D01*
X1300594Y1083663D01*
X1301621D01*
X1302613Y1083928D01*
X1303502Y1084442D01*
X1304229Y1085168D01*
X1304742Y1086057D01*
X1305008Y1087049D01*
Y1087521D01*
X1305027Y1087614D01*
X1305029Y1087936D01*
X1305045Y1088208D01*
X1305074Y1088457D01*
X1305116Y1088681D01*
X1305169Y1088880D01*
X1305231Y1089056D01*
X1305301Y1089210D01*
X1305378Y1089344D01*
X1305439Y1089429D01*
X1318762Y1103010D01*
X1318846Y1103072D01*
X1318979Y1103152D01*
X1319132Y1103224D01*
X1319306Y1103290D01*
X1319505Y1103346D01*
X1319728Y1103393D01*
X1319975Y1103427D01*
X1320248Y1103448D01*
X1320569Y1103456D01*
X1320655Y1103475D01*
X1321059D01*
X1322051Y1103741D01*
X1322941Y1104255D01*
X1323667Y1104981D01*
X1324180Y1105870D01*
X1324446Y1106862D01*
Y1107889D01*
X1324180Y1108881D01*
X1323667Y1109770D01*
X1322941Y1110496D01*
X1322051Y1111010D01*
X1321059Y1111275D01*
D02*
G37*
G36*
X1304454Y1075025D02*
X1303401D01*
X1302383Y1074753D01*
X1301471Y1074226D01*
X1300727Y1073481D01*
X1300200Y1072569D01*
X1299927Y1071552D01*
Y1070499D01*
X1300200Y1069481D01*
X1300727Y1068569D01*
X1301471Y1067824D01*
X1302383Y1067298D01*
X1303401Y1067025D01*
X1304454D01*
X1305471Y1067298D01*
X1306383Y1067824D01*
X1307128Y1068569D01*
X1307655Y1069481D01*
X1307927Y1070499D01*
Y1071552D01*
X1307655Y1072569D01*
X1307128Y1073481D01*
X1306383Y1074226D01*
X1305471Y1074753D01*
X1304454Y1075025D01*
D02*
G37*
%LPD*%
G36*
X1320545Y1104475D02*
X1320195Y1104467D01*
X1319865Y1104441D01*
X1319554Y1104398D01*
X1319261Y1104337D01*
X1318987Y1104259D01*
X1318732Y1104164D01*
X1318496Y1104051D01*
X1318279Y1103921D01*
X1318081Y1103773D01*
X1317901Y1103609D01*
X1316830Y1104659D01*
X1316992Y1104842D01*
X1317135Y1105043D01*
X1317261Y1105263D01*
X1317369Y1105501D01*
X1317460Y1105758D01*
X1317533Y1106033D01*
X1317588Y1106327D01*
X1317625Y1106639D01*
X1317645Y1106970D01*
X1317646Y1107319D01*
X1320545Y1104475D01*
D02*
G37*
G36*
X1304824Y1090279D02*
X1304662Y1090096D01*
X1304519Y1089895D01*
X1304393Y1089675D01*
X1304284Y1089437D01*
X1304194Y1089180D01*
X1304121Y1088905D01*
X1304066Y1088611D01*
X1304029Y1088299D01*
X1304009Y1087969D01*
X1304007Y1087619D01*
X1301109Y1090463D01*
X1301458Y1090471D01*
X1301789Y1090497D01*
X1302100Y1090540D01*
X1302392Y1090601D01*
X1302666Y1090679D01*
X1302921Y1090774D01*
X1303157Y1090887D01*
X1303375Y1091017D01*
X1303573Y1091165D01*
X1303753Y1091330D01*
X1304824Y1090279D01*
D02*
G37*
D12*
X1301108Y1087563D02*
X1320546Y1107375D01*
D13*
X1303927Y1071025D02*
D03*
X1325276Y1049677D02*
D03*
D14*
X1301108Y1087563D02*
D03*
X1217146Y1133975D02*
D03*
X1320546Y1107375D02*
D03*
M02*
