G04*
G04 #@! TF.GenerationSoftware,Altium Limited,Altium Designer,22.1.2 (22)*
G04*
G04 Layer_Color=16777215*
%FSAX25Y25*%
%MOIN*%
G70*
G04*
G04 #@! TF.SameCoordinates,6FBED77C-4E5F-4823-83EA-BC97D1DA3100*
G04*
G04*
G04 #@! TF.FilePolarity,Positive*
G04*
G01*
G75*
%ADD50C,0.01000*%
D50*
X1203684Y1171649D02*
G03*
X1174298Y1176361I-0062202J-0293974D01*
G01*
X1320669Y1037852D02*
G03*
X1318194Y1040324I-0135251J-0132911D01*
G01*
X1265039Y1080760D02*
G03*
X1242638Y1092056I-0128859J-0227671D01*
G01*
X1217426Y1101833D02*
G03*
X1211551Y1103717I-0089622J-0269369D01*
G01*
X1211197Y1103826D02*
G03*
X1186392Y1110263I-0085498J-0278466D01*
G01*
X1185981Y1110350D02*
G03*
X1159516Y1114726I-0062200J-0293974D01*
G01*
X1274558Y1075089D02*
G03*
X1269161Y1078374I-0133562J-0213395D01*
G01*
X1292258Y1136389D02*
G03*
X1286861Y1139674I-0133562J-0213395D01*
G01*
X1228897Y1165126D02*
G03*
X1204092Y1171563I-0085498J-0278466D01*
G01*
X1235126Y1163133D02*
G03*
X1229251Y1165017I-0089622J-0269369D01*
G01*
X1360615Y1072031D02*
G03*
X1333226Y1104180I-0192801J-0136511D01*
G01*
X1282739Y1142060D02*
G03*
X1260338Y1153356I-0128859J-0227671D01*
G01*
X1230017Y1097307D02*
X1230882Y1096970D01*
X1230415Y1097152D02*
X1230466Y1097132D01*
X1230362Y1097173D02*
X1230415Y1097152D01*
X1256481Y1155040D02*
X1256624Y1154979D01*
X1256481Y1155040D02*
X1257180Y1154741D01*
X1315250Y1043150D02*
X1318194Y1040324D01*
X1315250Y1043150D02*
X1315526Y1042880D01*
X1315129Y1043269D02*
X1315250Y1043150D01*
X1315129Y1043269D02*
X1315250Y1043150D01*
X1315020Y1043375D02*
X1315129Y1043269D01*
X1314343Y1044032D02*
X1315020Y1043375D01*
X1313663Y1044686D02*
X1314343Y1044032D01*
X1312981Y1045338D02*
X1313663Y1044686D01*
X1312296Y1045987D02*
X1312981Y1045338D01*
X1311686Y1046561D02*
X1312296Y1045987D01*
X1311073Y1047133D02*
X1311686Y1046561D01*
X1310458Y1047703D02*
X1311073Y1047133D01*
X1309841Y1048271D02*
X1310458Y1047703D01*
X1309222Y1048837D02*
X1309841Y1048271D01*
X1203681Y1171650D02*
X1204092Y1171563D01*
X1159538Y1114781D02*
X1174353Y1176395D01*
X1320635Y1037866D02*
X1360591Y1072058D01*
X1242016Y1092333D02*
X1242036Y1092324D01*
X1241661Y1092490D02*
X1241728Y1092460D01*
X1241595Y1092519D02*
X1241661Y1092490D01*
X1241186Y1092699D02*
X1242036Y1092324D01*
X1241532Y1092547D02*
X1241595Y1092519D01*
X1241468Y1092575D02*
X1241532Y1092547D01*
X1241407Y1092602D02*
X1241468Y1092575D01*
X1241347Y1092628D02*
X1241407Y1092602D01*
X1241290Y1092653D02*
X1241347Y1092628D01*
X1241942Y1092366D02*
X1242016Y1092333D01*
X1241868Y1092398D02*
X1241942Y1092366D01*
X1241796Y1092430D02*
X1241868Y1092398D01*
X1241728Y1092460D02*
X1241796Y1092430D01*
X1241188Y1092698D02*
X1241238Y1092676D01*
X1238782Y1093740D02*
X1239480Y1093441D01*
X1239297Y1093519D02*
X1239370Y1093488D01*
X1239223Y1093551D02*
X1239297Y1093519D01*
X1239149Y1093583D02*
X1239223Y1093551D01*
X1239074Y1093615D02*
X1239149Y1093583D01*
X1238999Y1093647D02*
X1239074Y1093615D01*
X1238924Y1093679D02*
X1238999Y1093647D01*
X1238782Y1093740D02*
X1238924Y1093679D01*
X1237771Y1094170D02*
X1238627Y1093806D01*
X1236914Y1094530D02*
X1237771Y1094170D01*
X1236056Y1094887D02*
X1236914Y1094530D01*
X1235197Y1095242D02*
X1236056Y1094887D01*
X1234336Y1095593D02*
X1235197Y1095242D01*
X1231477Y1096737D02*
X1231533Y1096715D01*
X1232613Y1096287D02*
X1232674Y1096263D01*
X1231747Y1096630D02*
X1232611Y1096288D01*
X1231746Y1096631D02*
X1231747Y1096630D01*
X1231720Y1096641D02*
X1231746Y1096631D01*
X1231655Y1096667D02*
X1231720Y1096641D01*
X1231592Y1096692D02*
X1231655Y1096667D01*
X1231533Y1096715D02*
X1231592Y1096692D01*
X1233474Y1095942D02*
X1234336Y1095593D01*
X1233107Y1096089D02*
X1233474Y1095942D01*
X1232751Y1096232D02*
X1233107Y1096089D01*
X1232613Y1096287D02*
X1233107Y1096089D01*
X1232674Y1096263D02*
X1232751Y1096232D01*
X1232611Y1096288D02*
X1232613Y1096287D01*
X1239370Y1093488D02*
X1239445Y1093456D01*
X1240232Y1093115D02*
X1240284Y1093093D01*
X1240119Y1093164D02*
X1240178Y1093139D01*
X1239997Y1093217D02*
X1240059Y1093190D01*
X1239483Y1093439D02*
X1240335Y1093071D01*
X1239869Y1093273D02*
X1239934Y1093245D01*
X1239802Y1093301D02*
X1239869Y1093273D01*
X1239735Y1093331D02*
X1239802Y1093301D01*
X1239666Y1093361D02*
X1239735Y1093331D01*
X1239593Y1093392D02*
X1239666Y1093361D01*
X1239483Y1093439D02*
X1239520Y1093423D01*
X1239480Y1093441D02*
X1239483Y1093439D01*
X1239445Y1093456D02*
X1239480Y1093441D01*
X1240178Y1093139D02*
X1240232Y1093115D01*
X1240766Y1092883D02*
X1240770Y1092881D01*
X1240772Y1092880D02*
X1240773Y1092880D01*
X1240770Y1092881D02*
X1240772Y1092880D01*
X1240939Y1092807D02*
X1240973Y1092792D01*
X1240909Y1092820D02*
X1240939Y1092807D01*
X1240881Y1092832D02*
X1240909Y1092820D01*
X1240857Y1092843D02*
X1240881Y1092832D01*
X1240836Y1092852D02*
X1240857Y1092843D01*
X1240817Y1092861D02*
X1240836Y1092852D01*
X1240801Y1092867D02*
X1240817Y1092861D01*
X1240789Y1092873D02*
X1240801Y1092867D01*
X1240773Y1092880D02*
X1240775Y1092879D01*
X1240780Y1092877D01*
X1240789Y1092873D01*
X1240771Y1092880D02*
X1241186Y1092699D01*
X1240695Y1092914D02*
X1240716Y1092905D01*
X1240758Y1092886D02*
X1240766Y1092883D01*
X1240747Y1092891D02*
X1240758Y1092886D01*
X1240733Y1092897D02*
X1240747Y1092891D01*
X1240716Y1092905D02*
X1240733Y1092897D01*
X1240671Y1092924D02*
X1240695Y1092914D01*
X1240645Y1092935D02*
X1240671Y1092924D01*
X1240617Y1092948D02*
X1240645Y1092935D01*
X1240585Y1092962D02*
X1240617Y1092948D01*
X1240551Y1092977D02*
X1240585Y1092962D01*
X1240335Y1093071D02*
X1240771Y1092880D01*
X1240512Y1092993D02*
X1240551Y1092977D01*
X1240471Y1093011D02*
X1240512Y1092993D01*
X1240428Y1093030D02*
X1240471Y1093011D01*
X1240382Y1093050D02*
X1240428Y1093030D01*
X1240334Y1093071D02*
X1240382Y1093050D01*
X1242036Y1092324D02*
X1242037Y1092323D01*
X1242393Y1092166D02*
X1242638Y1092056D01*
X1242392Y1092166D02*
X1242638Y1092056D01*
X1242316Y1092200D02*
X1242392Y1092166D01*
X1242241Y1092233D02*
X1242316Y1092200D01*
X1242038Y1092323D02*
X1242393Y1092166D01*
X1242166Y1092266D02*
X1242241Y1092233D01*
X1242091Y1092299D02*
X1242166Y1092266D01*
X1242038Y1092323D02*
X1242091Y1092299D01*
X1242037Y1092323D02*
X1242038Y1092323D01*
X1241011Y1092775D02*
X1241052Y1092758D01*
X1240973Y1092792D02*
X1241011Y1092775D01*
X1241096Y1092738D02*
X1241140Y1092719D01*
X1241052Y1092758D02*
X1241096Y1092738D01*
X1277994Y1072899D02*
X1278014Y1072886D01*
X1278034Y1072873D02*
X1278762Y1072399D01*
X1277994Y1072899D02*
X1278014Y1072886D01*
X1278034Y1072873D01*
X1278762Y1072399D02*
X1279488Y1071922D01*
X1280212Y1071443D01*
X1280937Y1070959D01*
X1281661Y1070473D01*
X1282384Y1069984D01*
X1283104Y1069493D01*
X1283823Y1068998D01*
X1284540Y1068502D01*
X1285252Y1068005D01*
X1276575Y1073814D02*
X1276575Y1073813D01*
X1276566Y1073819D02*
X1276574Y1073814D01*
X1276539Y1073836D02*
X1276566Y1073819D01*
X1276515Y1073851D02*
X1276539Y1073836D01*
X1276494Y1073865D02*
X1276515Y1073851D01*
X1276475Y1073877D02*
X1276494Y1073865D01*
X1276575Y1073813D02*
X1277305Y1073344D01*
X1276427Y1073908D02*
X1276430Y1073906D01*
X1276335Y1073966D02*
X1276356Y1073953D01*
X1276375Y1073941D01*
X1276403Y1073923D02*
X1276413Y1073917D01*
X1276390Y1073931D02*
X1276403Y1073923D01*
X1276375Y1073941D02*
X1276390Y1073931D01*
X1276413Y1073917D02*
X1276420Y1073912D01*
X1276425Y1073909D02*
X1276427Y1073908D01*
X1276420Y1073912D02*
X1276424Y1073910D01*
X1276425Y1073909D01*
X1275109Y1074743D02*
X1275842Y1074280D01*
X1275893Y1074248D02*
X1275942Y1074217D01*
X1275843Y1074280D02*
X1275893Y1074248D01*
X1275842Y1074280D02*
X1275843Y1074280D01*
X1275942Y1074217D02*
X1275989Y1074187D01*
X1276034Y1074158D01*
X1276077Y1074131D01*
X1276459Y1073887D02*
X1276475Y1073877D01*
X1276430Y1073906D02*
X1276436Y1073902D01*
X1276446Y1073895D01*
X1276459Y1073887D01*
X1277919Y1072948D02*
X1277994Y1072899D01*
X1277337Y1073324D02*
X1277405Y1073281D01*
X1277305Y1073344D02*
X1277307Y1073344D01*
X1277307Y1073344D02*
X1277337Y1073324D01*
X1277405Y1073281D02*
X1277476Y1073234D01*
X1277549Y1073188D01*
X1277622Y1073140D01*
X1277307Y1073344D02*
X1277994Y1072899D01*
X1277622Y1073140D02*
X1277697Y1073092D01*
X1277770Y1073044D01*
X1277844Y1072996D01*
X1277919Y1072948D01*
X1276077Y1074131D02*
X1276118Y1074105D01*
X1276157Y1074080D01*
X1276193Y1074057D01*
X1275843Y1074280D02*
X1276575Y1073814D01*
X1276193Y1074057D02*
X1276227Y1074035D01*
X1276258Y1074016D01*
X1276286Y1073998D01*
X1276312Y1073981D01*
X1276335Y1073966D01*
X1297870Y1058542D02*
X1298657Y1057908D01*
X1301001Y1055987D02*
X1301773Y1055343D01*
X1302543Y1054696D01*
X1303310Y1054045D01*
X1305468Y1052184D02*
X1306099Y1051632D01*
X1307979Y1049961D02*
X1308601Y1049400D01*
X1300222Y1056631D02*
X1301001Y1055987D01*
X1299441Y1057271D02*
X1300222Y1056631D01*
X1298657Y1057908D02*
X1299441Y1057271D01*
X1306727Y1051077D02*
X1307354Y1050521D01*
X1306099Y1051632D02*
X1306727Y1051077D01*
X1307354Y1050521D02*
X1307979Y1049961D01*
X1308601Y1049400D02*
X1309222Y1048837D01*
X1285252Y1068005D02*
X1285963Y1067505D01*
X1286671Y1067003D01*
X1287378Y1066499D01*
X1288083Y1065992D01*
X1288786Y1065482D01*
X1304074Y1053391D02*
X1304836Y1052734D01*
X1303310Y1054045D02*
X1304074Y1053391D01*
X1304836Y1052734D02*
X1305468Y1052184D01*
X1288786Y1065482D02*
X1289488Y1064970D01*
X1290187Y1064456D01*
X1290885Y1063939D01*
X1291581Y1063419D01*
X1292275Y1062897D01*
X1293658Y1061845D02*
X1294346Y1061316D01*
X1292275Y1062897D02*
X1292967Y1062372D01*
X1293658Y1061845D01*
X1294346Y1061316D02*
X1295033Y1060784D01*
X1296400Y1059712D02*
X1297081Y1059173D01*
X1295717Y1060249D02*
X1296400Y1059712D01*
X1295033Y1060784D02*
X1295717Y1060249D01*
X1297081Y1059173D02*
X1297870Y1058542D01*
X1217691Y1101745D02*
X1218189Y1101578D01*
X1211197Y1103826D02*
X1211551Y1103717D01*
X1217426Y1101833D02*
X1217691Y1101745D01*
X1185981Y1110350D02*
X1186392Y1110263D01*
X1230914Y1096958D02*
X1230915Y1096957D01*
X1230921Y1096955D02*
X1230929Y1096952D01*
X1230917Y1096957D02*
X1230921Y1096955D01*
X1230915Y1096957D02*
X1230917Y1096957D01*
X1230929Y1096952D02*
X1230940Y1096948D01*
X1230972Y1096935D02*
X1230993Y1096927D01*
X1230954Y1096942D02*
X1230972Y1096935D01*
X1230940Y1096948D02*
X1230954Y1096942D01*
X1231422Y1096759D02*
X1231477Y1096737D01*
X1231370Y1096779D02*
X1231422Y1096759D01*
X1231271Y1096818D02*
X1231319Y1096799D01*
X1231225Y1096836D02*
X1231271Y1096818D01*
X1231182Y1096853D02*
X1231225Y1096836D01*
X1231075Y1096895D02*
X1231108Y1096882D01*
X1231045Y1096906D02*
X1231075Y1096895D01*
X1231018Y1096917D02*
X1231045Y1096906D01*
X1230993Y1096927D02*
X1231018Y1096917D01*
X1230836Y1096988D02*
X1230858Y1096980D01*
X1230812Y1096998D02*
X1230836Y1096988D01*
X1230786Y1097008D02*
X1230812Y1096998D01*
X1230756Y1097019D02*
X1230786Y1097008D01*
X1230649Y1097061D02*
X1230688Y1097046D01*
X1230724Y1097032D01*
X1230756Y1097019D01*
X1230607Y1097077D02*
X1230649Y1097061D01*
X1225656Y1098952D02*
X1226532Y1098628D01*
X1224341Y1099432D02*
X1224999Y1099193D01*
X1223682Y1099669D02*
X1224341Y1099432D01*
X1223182Y1099848D02*
X1223682Y1099669D01*
X1224999Y1099193D02*
X1225656Y1098952D01*
X1222506Y1100089D02*
X1223023Y1099905D01*
X1222219Y1100190D02*
X1222506Y1100089D01*
X1221414Y1100473D02*
X1222219Y1100190D01*
X1220609Y1100753D02*
X1221414Y1100473D01*
X1219803Y1101030D02*
X1220609Y1100753D01*
X1218997Y1101305D02*
X1219803Y1101030D01*
X1218189Y1101578D02*
X1218997Y1101305D01*
X1230875Y1096973D02*
X1230890Y1096967D01*
X1230909Y1096960D02*
X1230914Y1096958D01*
X1230901Y1096963D02*
X1230909Y1096960D01*
X1230890Y1096967D02*
X1230901Y1096963D01*
X1230858Y1096980D02*
X1230875Y1096973D01*
X1230017Y1097307D02*
X1230056Y1097291D01*
X1230306Y1097195D02*
X1230362Y1097173D01*
X1230247Y1097218D02*
X1230306Y1097195D01*
X1230185Y1097241D02*
X1230247Y1097218D01*
X1230122Y1097266D02*
X1230185Y1097241D01*
X1230056Y1097291D02*
X1230122Y1097266D01*
X1230016Y1097307D02*
X1230017Y1097307D01*
X1229148Y1097641D02*
X1230016Y1097307D01*
X1229147Y1097642D02*
X1229148Y1097641D01*
X1229128Y1097649D02*
X1229147Y1097642D01*
X1226532Y1098628D02*
X1227406Y1098302D01*
X1228279Y1097972D01*
X1228628Y1097840D02*
X1228908Y1097733D01*
X1229054Y1097677D02*
X1229128Y1097649D01*
X1228908Y1097733D02*
X1229147Y1097642D01*
X1228981Y1097705D02*
X1229054Y1097677D01*
X1228908Y1097733D02*
X1228981Y1097705D01*
X1228628Y1097840D02*
X1228908Y1097733D01*
X1228279Y1097972D02*
X1228628Y1097840D01*
X1265390Y1080560D02*
X1265419Y1080544D01*
X1265039Y1080760D02*
X1265315Y1080603D01*
X1265315Y1080603D02*
X1265390Y1080560D01*
X1265315Y1080603D02*
X1265419Y1080544D01*
X1265421Y1080543D01*
X1266178Y1080111D01*
X1265039Y1080760D02*
X1265315Y1080603D01*
X1269130Y1078392D02*
X1269161Y1078374D01*
X1268434Y1078802D02*
X1268451Y1078792D01*
X1268522Y1078750D01*
X1268597Y1078706D01*
X1269054Y1078437D02*
X1269130Y1078392D01*
X1268978Y1078481D02*
X1269054Y1078437D01*
X1268902Y1078526D02*
X1268978Y1078481D01*
X1268827Y1078571D02*
X1268902Y1078526D01*
X1268435Y1078802D02*
X1269161Y1078374D01*
X1268750Y1078616D02*
X1268827Y1078571D01*
X1268673Y1078661D02*
X1268750Y1078616D01*
X1268597Y1078706D02*
X1268673Y1078661D01*
X1268433Y1078802D02*
X1268435Y1078802D01*
X1267661Y1079254D02*
X1267683Y1079241D01*
X1267616Y1079280D02*
X1267661Y1079254D01*
X1267574Y1079305D02*
X1267616Y1079280D01*
X1267537Y1079326D02*
X1267574Y1079305D01*
X1267684Y1079240D02*
X1268433Y1078802D01*
X1267683Y1079241D02*
X1267684Y1079240D01*
X1267323Y1079451D02*
X1267324Y1079450D01*
X1267309Y1079458D02*
X1267317Y1079454D01*
X1267321Y1079451D01*
X1267323Y1079451D01*
X1266178Y1080111D02*
X1266933Y1079676D01*
X1266934Y1079675D02*
X1266959Y1079661D01*
X1267001Y1079637D02*
X1267042Y1079613D01*
X1266933Y1079676D02*
X1266934Y1079676D01*
X1267503Y1079346D02*
X1267537Y1079326D01*
X1267299Y1079464D02*
X1267309Y1079458D01*
X1266934Y1079676D02*
X1267683Y1079241D01*
X1267286Y1079472D02*
X1267299Y1079464D01*
X1267270Y1079481D02*
X1267286Y1079472D01*
X1267250Y1079492D02*
X1267270Y1079481D01*
X1267115Y1079571D02*
X1267148Y1079552D01*
X1267080Y1079591D02*
X1267115Y1079571D01*
X1267042Y1079613D02*
X1267080Y1079591D01*
X1267228Y1079505D02*
X1267250Y1079492D01*
X1267204Y1079519D02*
X1267228Y1079505D01*
X1267177Y1079535D02*
X1267204Y1079519D01*
X1267148Y1079552D02*
X1267177Y1079535D01*
X1266959Y1079661D02*
X1267001Y1079637D01*
X1267472Y1079364D02*
X1267503Y1079346D01*
X1267443Y1079380D02*
X1267472Y1079364D01*
X1267417Y1079396D02*
X1267443Y1079380D01*
X1267394Y1079409D02*
X1267417Y1079396D01*
X1267374Y1079421D02*
X1267394Y1079409D01*
X1267357Y1079430D02*
X1267374Y1079421D01*
X1267324Y1079450D02*
X1267328Y1079447D01*
X1267335Y1079443D02*
X1267345Y1079438D01*
X1267328Y1079447D02*
X1267335Y1079443D01*
X1267345Y1079438D02*
X1267357Y1079430D01*
X1274700Y1075000D02*
X1274776Y1074953D01*
X1274851Y1074905D01*
X1274558Y1075089D02*
X1275107Y1074745D01*
X1274851Y1074905D02*
X1274926Y1074858D01*
X1275001Y1074811D01*
X1275075Y1074764D01*
X1275107Y1074745D01*
X1275107Y1074745D02*
X1275109Y1074743D01*
X1274558Y1075089D02*
X1274700Y1075000D01*
X1292258Y1136389D02*
X1292400Y1136300D01*
X1292807Y1136045D02*
X1292809Y1136043D01*
X1292775Y1136064D02*
X1292807Y1136045D01*
X1292701Y1136111D02*
X1292775Y1136064D01*
X1292626Y1136158D02*
X1292701Y1136111D01*
X1292551Y1136205D02*
X1292626Y1136158D01*
X1292258Y1136389D02*
X1292807Y1136045D01*
X1292476Y1136253D02*
X1292551Y1136205D01*
X1292400Y1136300D02*
X1292476Y1136253D01*
X1285045Y1140738D02*
X1285057Y1140730D01*
X1285028Y1140747D02*
X1285035Y1140743D01*
X1285045Y1140738D01*
X1285024Y1140750D02*
X1285028Y1140747D01*
X1285057Y1140730D02*
X1285074Y1140721D01*
X1285094Y1140709D01*
X1285117Y1140696D01*
X1285143Y1140680D01*
X1285172Y1140664D01*
X1285203Y1140646D01*
X1284659Y1140961D02*
X1284701Y1140937D01*
X1284848Y1140852D02*
X1284877Y1140835D01*
X1284904Y1140819D01*
X1284928Y1140805D01*
X1284950Y1140792D01*
X1284742Y1140913D02*
X1284780Y1140891D01*
X1284815Y1140871D01*
X1284848Y1140852D01*
X1284950Y1140792D02*
X1284970Y1140781D01*
X1284986Y1140772D01*
X1284999Y1140764D01*
X1284634Y1140976D02*
X1285383Y1140541D01*
X1284999Y1140764D02*
X1285009Y1140758D01*
X1285203Y1140646D02*
X1285237Y1140626D01*
X1284633Y1140976D02*
X1284634Y1140976D01*
X1284701Y1140937D02*
X1284742Y1140913D01*
X1284634Y1140975D02*
X1284659Y1140961D01*
X1283878Y1141411D02*
X1284633Y1140976D01*
X1285021Y1140751D02*
X1285023Y1140751D01*
X1285017Y1140754D02*
X1285021Y1140751D01*
X1285009Y1140758D02*
X1285017Y1140754D01*
X1285023Y1140751D02*
X1285024Y1140750D01*
X1285383Y1140541D02*
X1285384Y1140540D01*
X1286133Y1140102D01*
X1285237Y1140626D02*
X1285274Y1140605D01*
X1285316Y1140580D01*
X1285361Y1140554D01*
X1285383Y1140541D01*
X1286133Y1140102D02*
X1286135Y1140102D01*
X1286297Y1140006D02*
X1286373Y1139961D01*
X1286450Y1139916D01*
X1286527Y1139871D01*
X1286135Y1140102D02*
X1286861Y1139674D01*
X1286527Y1139871D02*
X1286602Y1139826D01*
X1286678Y1139781D01*
X1286754Y1139737D01*
X1286830Y1139692D01*
X1286222Y1140050D02*
X1286297Y1140006D01*
X1286151Y1140092D02*
X1286222Y1140050D01*
X1286134Y1140102D02*
X1286151Y1140092D01*
X1286830Y1139692D02*
X1286861Y1139674D01*
X1282739Y1142060D02*
X1283015Y1141903D01*
X1283121Y1141843D02*
X1283878Y1141411D01*
X1283119Y1141844D02*
X1283121Y1141843D01*
X1283015Y1141903D02*
X1283119Y1141844D01*
X1283015Y1141903D02*
X1283090Y1141860D01*
X1282739Y1142060D02*
X1283015Y1141903D01*
X1283090Y1141860D02*
X1283119Y1141844D01*
X1245979Y1159272D02*
X1246328Y1159140D01*
X1246608Y1159033D02*
X1246681Y1159005D01*
X1246754Y1158977D01*
X1246828Y1158949D01*
X1246328Y1159140D02*
X1246608Y1159033D01*
X1245106Y1159602D02*
X1245979Y1159272D01*
X1244232Y1159928D02*
X1245106Y1159602D01*
X1246828Y1158949D02*
X1246847Y1158942D01*
X1246847D02*
X1246848Y1158941D01*
X1247716Y1158607D01*
X1247717Y1158607D01*
X1247756Y1158591D02*
X1247822Y1158566D01*
X1247885Y1158541D01*
X1247947Y1158518D01*
X1248006Y1158495D01*
X1248062Y1158473D01*
X1247717Y1158607D02*
X1247756Y1158591D01*
X1248558Y1158280D02*
X1248575Y1158273D01*
X1248590Y1158267D02*
X1248601Y1158263D01*
X1248609Y1158260D01*
X1248614Y1158258D01*
X1248575Y1158273D02*
X1248590Y1158267D01*
X1235889Y1162878D02*
X1236697Y1162605D01*
X1237503Y1162330D01*
X1238309Y1162053D01*
X1239114Y1161773D01*
X1239919Y1161490D01*
X1240206Y1161388D01*
X1240723Y1161205D01*
X1242699Y1160493D02*
X1243356Y1160252D01*
X1240882Y1161148D02*
X1241382Y1160969D01*
X1242041Y1160732D01*
X1242699Y1160493D01*
X1240723Y1161205D02*
X1240882Y1161148D01*
X1243356Y1160252D02*
X1244232Y1159928D01*
X1247717Y1158607D02*
X1248582Y1158270D01*
X1248062Y1158473D02*
X1248115Y1158452D01*
X1248166Y1158432D01*
X1248215Y1158413D01*
X1248263Y1158395D01*
X1248424Y1158332D02*
X1248456Y1158319D01*
X1248349Y1158361D02*
X1248388Y1158346D01*
X1248456Y1158319D02*
X1248486Y1158308D01*
X1248512Y1158298D01*
X1248536Y1158288D01*
X1248558Y1158280D01*
X1248693Y1158227D02*
X1248718Y1158217D01*
X1248745Y1158206D01*
X1248775Y1158195D01*
X1248808Y1158182D01*
X1248844Y1158168D01*
X1248882Y1158153D01*
X1248925Y1158136D01*
X1248971Y1158118D01*
X1248582Y1158270D02*
X1249446Y1157931D01*
X1248640Y1158248D02*
X1248654Y1158242D01*
X1248672Y1158235D01*
X1248693Y1158227D01*
X1248629Y1158252D02*
X1248640Y1158248D01*
X1248615Y1158257D02*
X1248617Y1158257D01*
X1248621Y1158255D01*
X1248629Y1158252D01*
X1248614Y1158258D02*
X1248615Y1158257D01*
X1235126Y1163133D02*
X1235391Y1163045D01*
X1228897Y1165126D02*
X1229251Y1165017D01*
X1235391Y1163045D02*
X1235889Y1162878D01*
X1314781Y1120473D02*
X1315570Y1119842D01*
X1312733Y1122084D02*
X1313417Y1121549D01*
X1314100Y1121012D01*
X1314781Y1120473D01*
X1312046Y1122616D02*
X1312733Y1122084D01*
X1310667Y1123672D02*
X1311358Y1123145D01*
X1309975Y1124197D02*
X1310667Y1123672D01*
X1311358Y1123145D02*
X1312046Y1122616D01*
X1309281Y1124719D02*
X1309975Y1124197D01*
X1308585Y1125239D02*
X1309281Y1124719D01*
X1307887Y1125756D02*
X1308585Y1125239D01*
X1307188Y1126270D02*
X1307887Y1125756D01*
X1306486Y1126782D02*
X1307188Y1126270D01*
X1332950Y1104450D02*
X1333226Y1104180D01*
X1332829Y1104569D02*
X1332950Y1104450D01*
X1332829Y1104569D02*
X1332950Y1104450D01*
X1332950Y1104450D02*
X1333226Y1104180D01*
X1322536Y1114034D02*
X1323168Y1113484D01*
X1321010Y1115345D02*
X1321774Y1114691D01*
X1322536Y1114034D01*
X1305783Y1127292D02*
X1306486Y1126782D01*
X1305078Y1127799D02*
X1305783Y1127292D01*
X1304371Y1128303D02*
X1305078Y1127799D01*
X1303663Y1128805D02*
X1304371Y1128303D01*
X1302952Y1129305D02*
X1303663Y1128805D01*
X1332720Y1104675D02*
X1332829Y1104569D01*
X1331363Y1105986D02*
X1332043Y1105332D01*
X1332720Y1104675D01*
X1330681Y1106638D02*
X1331363Y1105986D01*
X1326301Y1110700D02*
X1326922Y1110137D01*
X1325054Y1111821D02*
X1325679Y1111261D01*
X1323799Y1112932D02*
X1324427Y1112377D01*
X1325054Y1111821D01*
X1316357Y1119208D02*
X1317141Y1118571D01*
X1317922Y1117931D01*
X1318701Y1117287D01*
X1328773Y1108433D02*
X1329386Y1107861D01*
X1329996Y1107287D01*
X1330681Y1106638D01*
X1328158Y1109003D02*
X1328773Y1108433D01*
X1326922Y1110137D02*
X1327541Y1109571D01*
X1328158Y1109003D01*
X1325679Y1111261D02*
X1326301Y1110700D01*
X1323168Y1113484D02*
X1323799Y1112932D01*
X1320243Y1115996D02*
X1321010Y1115345D01*
X1319473Y1116643D02*
X1320243Y1115996D01*
X1318701Y1117287D02*
X1319473Y1116643D01*
X1315570Y1119842D02*
X1316357Y1119208D01*
X1294012Y1135281D02*
X1294035Y1135266D01*
X1293986Y1135298D02*
X1294012Y1135281D01*
X1293958Y1135316D02*
X1293986Y1135298D01*
X1293927Y1135335D02*
X1293958Y1135316D01*
X1293893Y1135357D02*
X1293927Y1135335D01*
X1293543Y1135580D02*
X1294275Y1135114D01*
X1293857Y1135380D02*
X1293893Y1135357D01*
X1293818Y1135405D02*
X1293857Y1135380D01*
X1293777Y1135431D02*
X1293818Y1135405D01*
X1295544Y1134296D02*
X1295619Y1134248D01*
X1295470Y1134344D02*
X1295544Y1134296D01*
X1295397Y1134392D02*
X1295470Y1134344D01*
X1295322Y1134440D02*
X1295397Y1134392D01*
X1295007Y1134644D02*
X1295694Y1134199D01*
X1295249Y1134488D02*
X1295322Y1134440D01*
X1295176Y1134534D02*
X1295249Y1134488D01*
X1295105Y1134581D02*
X1295176Y1134534D01*
X1295007Y1134644D02*
X1295037Y1134624D01*
X1295005Y1134644D02*
X1295007Y1134644D01*
X1295037Y1134624D02*
X1295105Y1134581D01*
X1295619Y1134248D02*
X1295694Y1134199D01*
X1294146Y1135196D02*
X1294159Y1135187D01*
X1294136Y1135202D02*
X1294146Y1135196D01*
X1294130Y1135206D02*
X1294136Y1135202D01*
X1294159Y1135187D02*
X1294175Y1135177D01*
X1293734Y1135458D02*
X1293777Y1135431D01*
X1293689Y1135487D02*
X1293734Y1135458D01*
X1293642Y1135517D02*
X1293689Y1135487D01*
X1293542Y1135580D02*
X1293543Y1135580D01*
X1293543Y1135580D02*
X1293593Y1135548D01*
X1293642Y1135517D01*
X1292809Y1136043D02*
X1293542Y1135580D01*
X1294124Y1135210D02*
X1294125Y1135209D01*
X1294120Y1135212D02*
X1294124Y1135210D01*
X1294125Y1135209D02*
X1294127Y1135208D01*
X1294113Y1135217D02*
X1294120Y1135212D01*
X1294075Y1135241D02*
X1294090Y1135231D01*
X1294103Y1135223D01*
X1294113Y1135217D01*
X1294056Y1135253D02*
X1294075Y1135241D01*
X1294035Y1135266D02*
X1294056Y1135253D01*
X1294127Y1135208D02*
X1294130Y1135206D01*
X1294275Y1135113D02*
X1295005Y1134644D01*
X1294175Y1135177D02*
X1294194Y1135165D01*
X1294215Y1135151D01*
X1294239Y1135136D01*
X1294266Y1135119D01*
X1294274Y1135114D01*
X1294275Y1135114D02*
X1294275Y1135113D01*
X1302240Y1129802D02*
X1302952Y1129305D01*
X1301523Y1130298D02*
X1302240Y1129802D01*
X1300804Y1130793D02*
X1301523Y1130298D01*
X1300084Y1131284D02*
X1300804Y1130793D01*
X1299361Y1131773D02*
X1300084Y1131284D01*
X1298637Y1132259D02*
X1299361Y1131773D01*
X1297912Y1132743D02*
X1298637Y1132259D01*
X1297188Y1133222D02*
X1297912Y1132743D01*
X1296462Y1133699D02*
X1297188Y1133222D01*
X1295714Y1134186D02*
X1295734Y1134173D01*
X1295694Y1134199D02*
X1295714Y1134186D01*
X1295734Y1134173D02*
X1296462Y1133699D01*
X1295694Y1134199D02*
X1295714Y1134186D01*
X1258752Y1154058D02*
X1258796Y1154038D01*
X1258840Y1154019D01*
X1258673Y1154092D02*
X1258711Y1154075D01*
X1258752Y1154058D01*
X1259737Y1153623D02*
X1259738Y1153623D01*
X1259738Y1153623D02*
X1259791Y1153599D01*
X1259866Y1153566D01*
X1259941Y1153533D01*
X1259738Y1153623D02*
X1260093Y1153466D01*
X1259941Y1153533D02*
X1260016Y1153500D01*
X1260092Y1153466D01*
X1260338Y1153356D01*
X1260093Y1153466D02*
X1260338Y1153356D01*
X1259736Y1153624D02*
X1259737Y1153623D01*
X1258034Y1154371D02*
X1258082Y1154350D01*
X1258171Y1154311D02*
X1258212Y1154293D01*
X1258251Y1154277D01*
X1258035Y1154371D02*
X1258471Y1154180D01*
X1258251Y1154277D02*
X1258285Y1154262D01*
X1258317Y1154248D01*
X1258345Y1154235D01*
X1258371Y1154224D01*
X1258395Y1154214D01*
X1258416Y1154205D02*
X1258433Y1154197D01*
X1258447Y1154191D01*
X1258458Y1154186D01*
X1258466Y1154183D01*
X1258395Y1154214D02*
X1258416Y1154205D01*
X1258471Y1154180D02*
X1258886Y1153999D01*
X1258480Y1154177D02*
X1258489Y1154173D01*
X1258475Y1154179D02*
X1258480Y1154177D01*
X1258473Y1154180D02*
X1258475Y1154179D01*
X1258489Y1154173D02*
X1258501Y1154167D01*
X1258517Y1154160D01*
X1258536Y1154152D01*
X1258557Y1154143D01*
X1258581Y1154132D01*
X1258609Y1154120D01*
X1258639Y1154107D01*
X1258673Y1154092D01*
X1258470Y1154181D02*
X1258472Y1154180D01*
X1258473Y1154180D01*
X1258466Y1154183D02*
X1258470Y1154181D01*
X1257878Y1154439D02*
X1257932Y1154415D01*
X1257145Y1154755D02*
X1257180Y1154741D01*
X1257180Y1154741D02*
X1257183Y1154739D01*
X1257183Y1154739D02*
X1257220Y1154723D01*
X1257293Y1154692D02*
X1257366Y1154661D01*
X1257435Y1154631D01*
X1257502Y1154601D01*
X1257569Y1154573D01*
X1257634Y1154545D01*
X1257183Y1154739D02*
X1258035Y1154371D01*
X1257697Y1154517D02*
X1257759Y1154490D01*
X1257819Y1154464D02*
X1257878Y1154439D01*
X1257932Y1154415D02*
X1257984Y1154393D01*
X1257070Y1154788D02*
X1257145Y1154755D01*
X1250311Y1157588D02*
X1250313Y1157587D01*
X1250374Y1157563D02*
X1250451Y1157532D01*
X1250313Y1157587D02*
X1250807Y1157389D01*
X1250451Y1157532D02*
X1250807Y1157389D01*
X1250807Y1157389D02*
X1251174Y1157242D01*
X1252036Y1156893D01*
X1249355Y1157967D02*
X1249420Y1157941D01*
X1249446Y1157931D02*
X1249447Y1157930D01*
X1250311Y1157588D01*
X1250313Y1157587D02*
X1250374Y1157563D01*
X1252036Y1156893D02*
X1252897Y1156542D01*
X1253756Y1156187D01*
X1254614Y1155830D01*
X1255471Y1155470D01*
X1256327Y1155106D01*
X1256624Y1154979D02*
X1256699Y1154947D01*
X1256774Y1154915D01*
X1256849Y1154883D01*
X1256923Y1154851D01*
X1256997Y1154819D01*
X1257070Y1154788D01*
X1258888Y1153998D02*
X1258938Y1153976D01*
X1259428Y1153760D02*
X1259496Y1153730D01*
X1259568Y1153698D01*
X1259641Y1153666D01*
X1259716Y1153633D01*
X1258990Y1153953D02*
X1259047Y1153928D01*
X1259107Y1153902D01*
X1259168Y1153875D01*
X1259232Y1153847D01*
X1259295Y1153819D01*
X1258886Y1153999D02*
X1259736Y1153624D01*
X1259295Y1153819D02*
X1259361Y1153790D01*
X1259428Y1153760D01*
X1259716Y1153633D02*
X1259736Y1153624D01*
M02*
