G04*
G04 #@! TF.GenerationSoftware,Altium Limited,Altium Designer,22.1.2 (22)*
G04*
G04 Layer_Physical_Order=2*
G04 Layer_Color=16711680*
%FSAX25Y25*%
%MOIN*%
G70*
G04*
G04 #@! TF.SameCoordinates,FD287DCB-2155-4C42-8390-B26A17F608F3*
G04*
G04*
G04 #@! TF.FilePolarity,Positive*
G04*
G01*
G75*
%ADD13C,0.01500*%
%ADD14C,0.06000*%
%ADD15C,0.05800*%
G04:AMPARAMS|DCode=16|XSize=98.43mil|YSize=78.74mil|CornerRadius=0mil|HoleSize=0mil|Usage=FLASHONLY|Rotation=75.000|XOffset=0mil|YOffset=0mil|HoleType=Round|Shape=Rectangle|*
%AMROTATEDRECTD16*
4,1,4,0.02529,-0.05773,-0.05077,-0.03735,-0.02529,0.05773,0.05077,0.03735,0.02529,-0.05773,0.0*
%
%ADD16ROTATEDRECTD16*%

G04:AMPARAMS|DCode=17|XSize=25.98mil|YSize=24.8mil|CornerRadius=0mil|HoleSize=0mil|Usage=FLASHONLY|Rotation=315.000|XOffset=0mil|YOffset=0mil|HoleType=Round|Shape=Rectangle|*
%AMROTATEDRECTD17*
4,1,4,-0.01796,0.00042,-0.00042,0.01796,0.01796,-0.00042,0.00042,-0.01796,-0.01796,0.00042,0.0*
%
%ADD17ROTATEDRECTD17*%

G04:AMPARAMS|DCode=18|XSize=15.75mil|YSize=31.5mil|CornerRadius=0mil|HoleSize=0mil|Usage=FLASHONLY|Rotation=315.000|XOffset=0mil|YOffset=0mil|HoleType=Round|Shape=Rectangle|*
%AMROTATEDRECTD18*
4,1,4,-0.01670,-0.00557,0.00557,0.01670,0.01670,0.00557,-0.00557,-0.01670,-0.01670,-0.00557,0.0*
%
%ADD18ROTATEDRECTD18*%

G04:AMPARAMS|DCode=19|XSize=98.43mil|YSize=78.74mil|CornerRadius=0mil|HoleSize=0mil|Usage=FLASHONLY|Rotation=57.000|XOffset=0mil|YOffset=0mil|HoleType=Round|Shape=Rectangle|*
%AMROTATEDRECTD19*
4,1,4,0.00622,-0.06272,-0.05982,-0.01983,-0.00622,0.06272,0.05982,0.01983,0.00622,-0.06272,0.0*
%
%ADD19ROTATEDRECTD19*%

G04:AMPARAMS|DCode=20|XSize=98.43mil|YSize=78.74mil|CornerRadius=0mil|HoleSize=0mil|Usage=FLASHONLY|Rotation=55.000|XOffset=0mil|YOffset=0mil|HoleType=Round|Shape=Rectangle|*
%AMROTATEDRECTD20*
4,1,4,0.00402,-0.06289,-0.06048,-0.01773,-0.00402,0.06289,0.06048,0.01773,0.00402,-0.06289,0.0*
%
%ADD20ROTATEDRECTD20*%

G04:AMPARAMS|DCode=21|XSize=98.43mil|YSize=78.74mil|CornerRadius=0mil|HoleSize=0mil|Usage=FLASHONLY|Rotation=74.000|XOffset=0mil|YOffset=0mil|HoleType=Round|Shape=Rectangle|*
%AMROTATEDRECTD21*
4,1,4,0.02428,-0.05816,-0.05141,-0.03645,-0.02428,0.05816,0.05141,0.03645,0.02428,-0.05816,0.0*
%
%ADD21ROTATEDRECTD21*%

G04:AMPARAMS|DCode=22|XSize=98.43mil|YSize=78.74mil|CornerRadius=0mil|HoleSize=0mil|Usage=FLASHONLY|Rotation=60.000|XOffset=0mil|YOffset=0mil|HoleType=Round|Shape=Rectangle|*
%AMROTATEDRECTD22*
4,1,4,0.00949,-0.06230,-0.05870,-0.02293,-0.00949,0.06230,0.05870,0.02293,0.00949,-0.06230,0.0*
%
%ADD22ROTATEDRECTD22*%

G04:AMPARAMS|DCode=23|XSize=98.43mil|YSize=78.74mil|CornerRadius=0mil|HoleSize=0mil|Usage=FLASHONLY|Rotation=62.000|XOffset=0mil|YOffset=0mil|HoleType=Round|Shape=Rectangle|*
%AMROTATEDRECTD23*
4,1,4,0.01166,-0.06194,-0.05787,-0.02497,-0.01166,0.06194,0.05787,0.02497,0.01166,-0.06194,0.0*
%
%ADD23ROTATEDRECTD23*%

G04:AMPARAMS|DCode=24|XSize=98.43mil|YSize=78.74mil|CornerRadius=0mil|HoleSize=0mil|Usage=FLASHONLY|Rotation=69.000|XOffset=0mil|YOffset=0mil|HoleType=Round|Shape=Rectangle|*
%AMROTATEDRECTD24*
4,1,4,0.01912,-0.06005,-0.05439,-0.03184,-0.01912,0.06005,0.05439,0.03184,0.01912,-0.06005,0.0*
%
%ADD24ROTATEDRECTD24*%

G04:AMPARAMS|DCode=25|XSize=98.43mil|YSize=78.74mil|CornerRadius=0mil|HoleSize=0mil|Usage=FLASHONLY|Rotation=65.000|XOffset=0mil|YOffset=0mil|HoleType=Round|Shape=Rectangle|*
%AMROTATEDRECTD25*
4,1,4,0.01488,-0.06124,-0.05648,-0.02796,-0.01488,0.06124,0.05648,0.02796,0.01488,-0.06124,0.0*
%
%ADD25ROTATEDRECTD25*%

G04:AMPARAMS|DCode=26|XSize=98.43mil|YSize=78.74mil|CornerRadius=0mil|HoleSize=0mil|Usage=FLASHONLY|Rotation=71.000|XOffset=0mil|YOffset=0mil|HoleType=Round|Shape=Rectangle|*
%AMROTATEDRECTD26*
4,1,4,0.02120,-0.05935,-0.05325,-0.03371,-0.02120,0.05935,0.05325,0.03371,0.02120,-0.05935,0.0*
%
%ADD26ROTATEDRECTD26*%

G04:AMPARAMS|DCode=27|XSize=39.37mil|YSize=57.09mil|CornerRadius=0mil|HoleSize=0mil|Usage=FLASHONLY|Rotation=69.000|XOffset=0mil|YOffset=0mil|HoleType=Round|Shape=Rectangle|*
%AMROTATEDRECTD27*
4,1,4,0.01959,-0.02861,-0.03370,-0.00815,-0.01959,0.02861,0.03370,0.00815,0.01959,-0.02861,0.0*
%
%ADD27ROTATEDRECTD27*%

G04:AMPARAMS|DCode=28|XSize=39.37mil|YSize=57.09mil|CornerRadius=0mil|HoleSize=0mil|Usage=FLASHONLY|Rotation=65.000|XOffset=0mil|YOffset=0mil|HoleType=Round|Shape=Rectangle|*
%AMROTATEDRECTD28*
4,1,4,0.01755,-0.02990,-0.03419,-0.00578,-0.01755,0.02990,0.03419,0.00578,0.01755,-0.02990,0.0*
%
%ADD28ROTATEDRECTD28*%

G04:AMPARAMS|DCode=29|XSize=39.37mil|YSize=57.09mil|CornerRadius=0mil|HoleSize=0mil|Usage=FLASHONLY|Rotation=62.000|XOffset=0mil|YOffset=0mil|HoleType=Round|Shape=Rectangle|*
%AMROTATEDRECTD29*
4,1,4,0.01596,-0.03078,-0.03444,-0.00398,-0.01596,0.03078,0.03444,0.00398,0.01596,-0.03078,0.0*
%
%ADD29ROTATEDRECTD29*%

%ADD30C,0.03937*%
%ADD31R,0.11024X0.03937*%
G36*
X1184031Y1173613D02*
X1194567Y1171905D01*
X1203357Y1170157D01*
X1203364Y1170154D01*
X1203774Y1170067D01*
X1203807Y1170066D01*
X1204999Y1169829D01*
X1215067Y1167450D01*
X1225043Y1164713D01*
X1228443Y1163649D01*
Y1163649D01*
X1228801Y1163555D01*
X1228928Y1163542D01*
X1234163Y1161820D01*
X1234638Y1161664D01*
X1235118Y1161523D01*
X1235402Y1161428D01*
X1236204Y1161157D01*
X1237008Y1160883D01*
X1237809Y1160607D01*
X1238610Y1160329D01*
X1239412Y1160047D01*
X1239696Y1159947D01*
X1240210Y1159764D01*
X1240368Y1159708D01*
X1240867Y1159529D01*
X1241519Y1159294D01*
X1242175Y1159056D01*
X1242826Y1158817D01*
X1243699Y1158495D01*
X1244566Y1158171D01*
X1245438Y1157842D01*
X1245784Y1157710D01*
X1246063Y1157604D01*
X1246135Y1157576D01*
X1246208Y1157549D01*
X1246281Y1157521D01*
X1246281D01*
X1246300Y1157514D01*
X1247162Y1157181D01*
X1248026Y1156846D01*
X1248883Y1156509D01*
X1249745Y1156167D01*
X1250239Y1155969D01*
X1250603Y1155823D01*
X1251462Y1155476D01*
X1252316Y1155127D01*
X1253170Y1154775D01*
X1254025Y1154419D01*
X1254876Y1154061D01*
X1255729Y1153698D01*
X1255810Y1153682D01*
X1255879Y1153635D01*
X1255880Y1153634D01*
X1255880Y1153634D01*
X1255885Y1153632D01*
X1256576Y1153336D01*
X1256576Y1153335D01*
X1256579Y1153334D01*
X1257425Y1152968D01*
X1257433Y1152964D01*
X1257858Y1152779D01*
X1258273Y1152598D01*
X1259118Y1152225D01*
X1259118Y1152225D01*
X1259259Y1152162D01*
X1259714Y1151955D01*
Y1151955D01*
X1259714Y1151955D01*
X1266734Y1148734D01*
X1275418Y1144351D01*
X1281982Y1140723D01*
X1281982Y1140723D01*
X1282420Y1140482D01*
X1283115Y1140085D01*
X1283870Y1139651D01*
X1284614Y1139219D01*
X1285361Y1138782D01*
X1286066Y1138367D01*
X1286073Y1138341D01*
Y1138341D01*
X1289449Y1136363D01*
X1291443Y1135086D01*
X1291443Y1135086D01*
X1291453Y1135089D01*
X1291994Y1134749D01*
X1291994Y1134749D01*
X1292722Y1134289D01*
X1293451Y1133825D01*
X1294177Y1133359D01*
X1294862Y1132916D01*
X1294881Y1132904D01*
X1294881Y1132904D01*
X1294881Y1132904D01*
X1294900Y1132891D01*
X1295623Y1132420D01*
X1296345Y1131946D01*
X1297066Y1131469D01*
X1297785Y1130990D01*
X1298506Y1130505D01*
X1299226Y1130018D01*
X1299940Y1129531D01*
X1300653Y1129041D01*
X1301367Y1128546D01*
X1302074Y1128053D01*
X1302781Y1127555D01*
X1303487Y1127056D01*
X1304188Y1126555D01*
X1304887Y1126052D01*
X1305588Y1125545D01*
X1306282Y1125038D01*
X1306978Y1124526D01*
X1307673Y1124011D01*
X1308363Y1123495D01*
X1309054Y1122976D01*
X1309741Y1122455D01*
X1310427Y1121931D01*
X1311111Y1121406D01*
X1311794Y1120876D01*
X1312473Y1120346D01*
X1313154Y1119810D01*
X1313829Y1119275D01*
X1314614Y1118649D01*
X1315393Y1118021D01*
X1316173Y1117387D01*
X1316949Y1116751D01*
X1317724Y1116110D01*
X1318491Y1115470D01*
X1319256Y1114827D01*
X1320018Y1114181D01*
X1320777Y1113531D01*
X1321534Y1112878D01*
X1322162Y1112332D01*
X1322789Y1111783D01*
X1323413Y1111233D01*
X1324037Y1110678D01*
X1324656Y1110125D01*
X1325276Y1109565D01*
X1325892Y1109007D01*
X1326507Y1108444D01*
X1327119Y1107881D01*
X1327731Y1107314D01*
X1328339Y1106745D01*
X1328946Y1106175D01*
X1329626Y1105530D01*
X1330306Y1104881D01*
X1330981Y1104232D01*
X1331655Y1103578D01*
X1331760Y1103475D01*
X1331798Y1103438D01*
X1332149Y1103081D01*
X1332149Y1103081D01*
X1333794Y1101500D01*
X1340182Y1094855D01*
X1346305Y1087965D01*
X1352153Y1080840D01*
X1357716Y1073491D01*
X1358537Y1072313D01*
X1329005Y1047041D01*
X1328665Y1047408D01*
X1328755Y1047499D01*
X1329282Y1048411D01*
X1329554Y1049428D01*
Y1050482D01*
X1329282Y1051499D01*
X1328755Y1052411D01*
X1328010Y1053156D01*
X1327098Y1053682D01*
X1326081Y1053955D01*
X1325028D01*
X1324010Y1053682D01*
X1323098Y1053156D01*
X1322354Y1052411D01*
X1321827Y1051499D01*
X1321554Y1050482D01*
Y1049428D01*
X1321827Y1048411D01*
X1322354Y1047499D01*
X1323098Y1046754D01*
X1324010Y1046227D01*
X1325028Y1045955D01*
X1326081D01*
X1327098Y1046227D01*
X1327671Y1046558D01*
X1327961Y1046148D01*
X1320741Y1039970D01*
X1320597Y1040120D01*
X1319614Y1041061D01*
X1319263Y1041414D01*
X1319253Y1041428D01*
X1318905Y1041762D01*
X1316315Y1044248D01*
X1316197Y1044363D01*
X1316197Y1044363D01*
X1316196Y1044364D01*
X1316087Y1044470D01*
X1316086Y1044471D01*
X1316085Y1044472D01*
X1315408Y1045129D01*
X1315405Y1045131D01*
X1315404Y1045134D01*
X1314724Y1045788D01*
X1314721Y1045790D01*
X1314720Y1045792D01*
X1314038Y1046444D01*
X1314035Y1046445D01*
X1314033Y1046448D01*
X1313348Y1047097D01*
X1313346Y1047098D01*
X1313344Y1047101D01*
X1312733Y1047675D01*
X1312731Y1047677D01*
X1312729Y1047679D01*
X1312117Y1048251D01*
X1312114Y1048253D01*
X1312113Y1048255D01*
X1311498Y1048825D01*
X1311495Y1048826D01*
X1311494Y1048829D01*
X1310877Y1049396D01*
X1310875Y1049398D01*
X1310873Y1049400D01*
X1310336Y1049890D01*
X1310434Y1050330D01*
X1310471Y1050403D01*
X1310497Y1050420D01*
X1311146Y1050291D01*
X1313046D01*
X1313729Y1050427D01*
X1314308Y1050814D01*
X1315592Y1052098D01*
X1315602Y1052088D01*
X1317467Y1053953D01*
X1320084Y1051336D01*
X1323252Y1054504D01*
X1322888Y1054868D01*
X1325408Y1057388D01*
X1325564Y1057623D01*
X1325739Y1057845D01*
X1325757Y1057910D01*
X1325794Y1057967D01*
X1325850Y1058244D01*
X1325925Y1058516D01*
X1328263Y1089696D01*
X1328179Y1090387D01*
X1327836Y1090993D01*
X1327577Y1091196D01*
X1326824Y1092088D01*
X1321961Y1097231D01*
X1316818Y1102094D01*
X1311410Y1106660D01*
X1305755Y1110916D01*
X1299870Y1114849D01*
X1293774Y1118445D01*
X1287485Y1121693D01*
X1281025Y1124584D01*
X1274412Y1127108D01*
X1267669Y1129258D01*
X1260815Y1131026D01*
X1253873Y1132406D01*
X1246865Y1133396D01*
X1244907Y1133561D01*
X1244409Y1133608D01*
X1244246Y1133640D01*
X1244224Y1133636D01*
X1244200Y1133640D01*
X1243883Y1133568D01*
X1243563Y1133504D01*
X1243544Y1133491D01*
X1243521Y1133486D01*
X1243255Y1133298D01*
X1242985Y1133118D01*
X1242971Y1133098D01*
X1242952Y1133084D01*
X1242779Y1132809D01*
X1242598Y1132539D01*
X1242593Y1132515D01*
X1242581Y1132495D01*
X1241572Y1129869D01*
X1239353Y1130721D01*
X1237226Y1125178D01*
X1244422Y1122415D01*
X1245903Y1126272D01*
X1246025Y1126537D01*
X1246027Y1126595D01*
X1246550Y1127958D01*
X1245369Y1128411D01*
X1245073Y1129030D01*
X1245428Y1129954D01*
X1246467Y1129867D01*
X1253278Y1128905D01*
X1260025Y1127563D01*
X1266685Y1125845D01*
X1273239Y1123756D01*
X1279666Y1121303D01*
X1285944Y1118493D01*
X1292056Y1115336D01*
X1297980Y1111841D01*
X1303700Y1108020D01*
X1309196Y1103883D01*
X1314452Y1099446D01*
X1319450Y1094720D01*
X1324176Y1089721D01*
X1324645Y1089166D01*
X1322416Y1059443D01*
X1320365Y1057391D01*
X1320000Y1057755D01*
X1318609Y1056364D01*
X1317348Y1057624D01*
X1320908Y1061184D01*
X1321062Y1061415D01*
X1321235Y1061634D01*
X1321255Y1061703D01*
X1321294Y1061763D01*
X1321349Y1062036D01*
X1321425Y1062304D01*
X1323124Y1083731D01*
X1323157Y1083894D01*
X1323021Y1084577D01*
X1322799Y1084910D01*
X1322808Y1084916D01*
X1320084Y1088618D01*
X1316216Y1093259D01*
X1312075Y1097659D01*
X1307676Y1101800D01*
X1303035Y1105668D01*
X1298169Y1109248D01*
X1293095Y1112529D01*
X1287833Y1115497D01*
X1282401Y1118142D01*
X1276819Y1120454D01*
X1271108Y1122425D01*
X1268028Y1123283D01*
X1267974Y1123319D01*
X1267754Y1123363D01*
X1267711Y1123371D01*
X1265288Y1124047D01*
X1259381Y1125315D01*
X1257658Y1125577D01*
X1257552Y1125620D01*
X1257381Y1125619D01*
X1257213Y1125653D01*
X1257036Y1125618D01*
X1256856Y1125616D01*
X1256698Y1125550D01*
X1256530Y1125517D01*
X1256380Y1125417D01*
X1256214Y1125346D01*
X1256094Y1125225D01*
X1255952Y1125130D01*
X1255851Y1124980D01*
X1255724Y1124852D01*
X1255645Y1124732D01*
X1253388Y1125784D01*
X1250879Y1120404D01*
X1257865Y1117146D01*
X1259611Y1120890D01*
X1259751Y1121146D01*
X1260139Y1121521D01*
X1264438Y1120598D01*
X1266816Y1119936D01*
X1266816Y1119936D01*
X1267297Y1119802D01*
X1270051Y1119034D01*
X1275559Y1117133D01*
X1280943Y1114903D01*
X1286182Y1112352D01*
X1291258Y1109489D01*
X1296151Y1106326D01*
X1300845Y1102872D01*
X1305321Y1099141D01*
X1309564Y1095147D01*
X1313558Y1090904D01*
X1317289Y1086428D01*
X1319518Y1083398D01*
X1319137Y1078598D01*
X1319042Y1078538D01*
X1318373Y1078690D01*
X1315933Y1082614D01*
X1312869Y1086889D01*
X1309533Y1090954D01*
X1305939Y1094792D01*
X1302100Y1098387D01*
X1298035Y1101723D01*
X1293761Y1104786D01*
X1289295Y1107563D01*
X1284657Y1110042D01*
X1279867Y1112212D01*
X1274946Y1114065D01*
X1273910Y1114379D01*
X1273718Y1114841D01*
X1273797Y1114989D01*
X1266991Y1118608D01*
X1264203Y1113366D01*
X1271010Y1109747D01*
X1271842Y1111312D01*
X1275959Y1109942D01*
X1281026Y1107843D01*
X1285929Y1105389D01*
X1290645Y1102591D01*
X1295149Y1099463D01*
X1299419Y1096023D01*
X1303432Y1092286D01*
X1307169Y1088273D01*
X1310610Y1084003D01*
X1313737Y1079498D01*
X1315221Y1076998D01*
X1313972Y1068983D01*
X1311373Y1066383D01*
X1308754Y1069002D01*
X1305586Y1065834D01*
X1305950Y1065470D01*
X1303112Y1062633D01*
X1295315Y1070430D01*
X1298686Y1075244D01*
X1295952Y1077159D01*
X1295874Y1077652D01*
X1300435Y1083705D01*
X1300594Y1083663D01*
X1301621D01*
X1302613Y1083928D01*
X1303502Y1084442D01*
X1304229Y1085168D01*
X1304742Y1086057D01*
X1305008Y1087049D01*
Y1088076D01*
X1304742Y1089068D01*
X1304229Y1089957D01*
X1303502Y1090683D01*
X1302613Y1091197D01*
X1301621Y1091463D01*
X1300594D01*
X1299603Y1091197D01*
X1298713Y1090683D01*
X1297987Y1089957D01*
X1297474Y1089068D01*
X1297208Y1088076D01*
Y1087049D01*
X1297474Y1086057D01*
X1297589Y1085858D01*
X1292733Y1079413D01*
X1290598Y1080908D01*
X1283930Y1071385D01*
X1283805Y1071207D01*
X1283329Y1071191D01*
X1283245Y1071247D01*
X1283243Y1071249D01*
X1283241Y1071251D01*
X1282519Y1071739D01*
X1282516Y1071741D01*
X1282514Y1071743D01*
X1281790Y1072229D01*
X1281788Y1072230D01*
X1281786Y1072232D01*
X1281201Y1072622D01*
X1287580Y1082445D01*
X1279299Y1087823D01*
X1277503Y1085057D01*
X1277013Y1084956D01*
X1275541Y1085939D01*
X1274518Y1086444D01*
X1274373Y1086922D01*
X1276033Y1089796D01*
X1267481Y1094733D01*
X1261810Y1084910D01*
X1261560Y1084477D01*
X1261532Y1084427D01*
X1259143Y1085748D01*
X1259142Y1085750D01*
X1264585Y1095986D01*
X1262461Y1097115D01*
X1262093Y1097454D01*
X1265642Y1104129D01*
X1267498Y1103143D01*
X1270285Y1108385D01*
X1263479Y1112004D01*
X1260692Y1106762D01*
X1262491Y1105805D01*
X1259114Y1099453D01*
X1258515Y1099213D01*
X1255867Y1100621D01*
X1250324Y1090198D01*
X1247518Y1091485D01*
X1247346Y1091955D01*
X1252102Y1102155D01*
X1249241Y1103489D01*
X1249327Y1103695D01*
X1252842Y1111234D01*
X1254704Y1110366D01*
X1257213Y1115747D01*
X1250227Y1119005D01*
X1247717Y1113624D01*
X1249608Y1112743D01*
X1246210Y1105455D01*
X1245634Y1105190D01*
X1245588Y1105192D01*
X1243153Y1106328D01*
X1238178Y1095658D01*
X1237507Y1095940D01*
X1237504Y1095940D01*
X1237502Y1095942D01*
X1236644Y1096299D01*
X1236641Y1096300D01*
X1236639Y1096301D01*
X1235951Y1096585D01*
X1240077Y1107334D01*
X1236995Y1108517D01*
X1237083Y1109006D01*
X1239832Y1116165D01*
X1241742Y1115432D01*
X1243869Y1120975D01*
X1236673Y1123737D01*
X1234545Y1118194D01*
X1236500Y1117444D01*
X1233722Y1110206D01*
X1233285Y1109941D01*
X1230859Y1110873D01*
X1226753Y1100177D01*
X1226187Y1100386D01*
X1226184Y1100387D01*
X1226182Y1100388D01*
X1225525Y1100629D01*
X1225523Y1100629D01*
X1225521Y1100630D01*
X1224863Y1100869D01*
X1224984Y1101336D01*
X1228542Y1111667D01*
X1225912Y1112572D01*
X1225697Y1113175D01*
X1234590Y1139003D01*
X1240266Y1139162D01*
X1246475Y1138988D01*
X1252665Y1138466D01*
X1258816Y1137597D01*
X1264909Y1136385D01*
X1270924Y1134834D01*
X1276842Y1132947D01*
X1282646Y1130732D01*
X1288316Y1128195D01*
X1293835Y1125344D01*
X1299185Y1122188D01*
X1304351Y1118736D01*
X1309314Y1115001D01*
X1314060Y1110993D01*
X1316787Y1108415D01*
X1316646Y1107889D01*
Y1106862D01*
X1316912Y1105870D01*
X1317425Y1104981D01*
X1318151Y1104255D01*
X1319041Y1103741D01*
X1320033Y1103475D01*
X1321059D01*
X1322051Y1103741D01*
X1322941Y1104255D01*
X1323667Y1104981D01*
X1324180Y1105870D01*
X1324446Y1106862D01*
Y1107889D01*
X1324180Y1108881D01*
X1323667Y1109770D01*
X1322941Y1110496D01*
X1322051Y1111010D01*
X1321059Y1111275D01*
X1320033D01*
X1319173Y1111045D01*
X1316427Y1113641D01*
X1311528Y1117778D01*
X1306406Y1121633D01*
X1301075Y1125195D01*
X1295553Y1128452D01*
X1289857Y1131394D01*
X1284005Y1134013D01*
X1278015Y1136300D01*
X1271907Y1138246D01*
X1265699Y1139848D01*
X1259411Y1141099D01*
X1253063Y1141995D01*
X1246674Y1142534D01*
X1240266Y1142713D01*
X1234076Y1142540D01*
X1215852Y1165388D01*
X1215775Y1165453D01*
X1215719Y1165537D01*
X1215511Y1165676D01*
X1215320Y1165837D01*
X1215224Y1165868D01*
X1215140Y1165924D01*
X1214895Y1165973D01*
X1214657Y1166049D01*
X1214556Y1166040D01*
X1214457Y1166060D01*
X1210294D01*
Y1167607D01*
X1197270D01*
Y1166423D01*
X1187459D01*
Y1167607D01*
X1174436D01*
Y1161670D01*
X1187459D01*
Y1162854D01*
X1197270D01*
Y1161670D01*
X1210294D01*
Y1162491D01*
X1213598D01*
X1231273Y1140331D01*
X1222239Y1114093D01*
X1222160Y1113864D01*
X1219206Y1114881D01*
X1215478Y1104055D01*
X1212008Y1105197D01*
X1212002Y1105179D01*
X1212001Y1105179D01*
X1211647Y1105288D01*
X1211523Y1105300D01*
X1208202Y1106340D01*
X1202776Y1107829D01*
X1205747Y1118917D01*
X1203596Y1119494D01*
X1203552Y1119524D01*
X1203276Y1120097D01*
X1206407Y1131779D01*
X1206413Y1131874D01*
X1206512Y1132629D01*
X1206417Y1133350D01*
Y1145922D01*
X1210294D01*
Y1151859D01*
X1197270D01*
Y1150675D01*
X1187459D01*
Y1151859D01*
X1174436D01*
Y1145922D01*
X1187459D01*
Y1147106D01*
X1197270D01*
Y1145922D01*
X1202849D01*
Y1133171D01*
X1202941Y1132706D01*
X1202909Y1132629D01*
X1202928Y1132585D01*
X1199756Y1120746D01*
X1199689Y1120541D01*
X1196210Y1121473D01*
X1193207Y1110267D01*
X1187947Y1111510D01*
X1186722Y1111754D01*
X1186710Y1111759D01*
X1186300Y1111846D01*
X1186261Y1111847D01*
X1177408Y1113607D01*
X1166765Y1115332D01*
X1161777Y1115958D01*
X1161493Y1116370D01*
X1175514Y1174682D01*
X1184031Y1173613D01*
D02*
G37*
%LPC*%
G36*
X1238304Y1159313D02*
X1237788D01*
X1237276Y1159245D01*
X1236778Y1159111D01*
X1236301Y1158914D01*
X1235854Y1158656D01*
X1235445Y1158342D01*
X1235079Y1157977D01*
X1234765Y1157567D01*
X1234507Y1157121D01*
X1234310Y1156644D01*
X1234176Y1156145D01*
X1234109Y1155634D01*
Y1155117D01*
X1234176Y1154606D01*
X1234310Y1154107D01*
X1234507Y1153630D01*
X1234765Y1153183D01*
X1235079Y1152774D01*
X1235445Y1152409D01*
X1235854Y1152095D01*
X1236301Y1151837D01*
X1236778Y1151639D01*
X1237276Y1151506D01*
X1237788Y1151438D01*
X1238304D01*
X1238816Y1151506D01*
X1239314Y1151639D01*
X1239791Y1151837D01*
X1240238Y1152095D01*
X1240647Y1152409D01*
X1241012Y1152774D01*
X1241326Y1153183D01*
X1241584Y1153630D01*
X1241782Y1154107D01*
X1241916Y1154606D01*
X1241983Y1155117D01*
Y1155634D01*
X1241916Y1156145D01*
X1241782Y1156644D01*
X1241584Y1157121D01*
X1241326Y1157567D01*
X1241012Y1157977D01*
X1240647Y1158342D01*
X1240238Y1158656D01*
X1239791Y1158914D01*
X1239314Y1159111D01*
X1238816Y1159245D01*
X1238304Y1159313D01*
D02*
G37*
G36*
X1168704Y1124912D02*
X1168188D01*
X1167676Y1124845D01*
X1167178Y1124712D01*
X1166701Y1124514D01*
X1166254Y1124256D01*
X1165845Y1123942D01*
X1165479Y1123577D01*
X1165165Y1123167D01*
X1164907Y1122721D01*
X1164710Y1122244D01*
X1164576Y1121745D01*
X1164509Y1121233D01*
Y1120717D01*
X1164576Y1120206D01*
X1164710Y1119707D01*
X1164907Y1119230D01*
X1165165Y1118783D01*
X1165479Y1118374D01*
X1165845Y1118009D01*
X1166254Y1117695D01*
X1166701Y1117437D01*
X1167178Y1117239D01*
X1167676Y1117106D01*
X1168188Y1117038D01*
X1168704D01*
X1169216Y1117106D01*
X1169714Y1117239D01*
X1170191Y1117437D01*
X1170638Y1117695D01*
X1171047Y1118009D01*
X1171412Y1118374D01*
X1171726Y1118783D01*
X1171984Y1119230D01*
X1172182Y1119707D01*
X1172316Y1120206D01*
X1172383Y1120717D01*
Y1121233D01*
X1172316Y1121745D01*
X1172182Y1122244D01*
X1171984Y1122721D01*
X1171726Y1123167D01*
X1171412Y1123577D01*
X1171047Y1123942D01*
X1170638Y1124256D01*
X1170191Y1124514D01*
X1169714Y1124712D01*
X1169216Y1124845D01*
X1168704Y1124912D01*
D02*
G37*
G36*
X1352204Y1077312D02*
X1351688D01*
X1351176Y1077245D01*
X1350678Y1077112D01*
X1350201Y1076914D01*
X1349754Y1076656D01*
X1349345Y1076342D01*
X1348979Y1075977D01*
X1348665Y1075567D01*
X1348407Y1075121D01*
X1348210Y1074644D01*
X1348076Y1074145D01*
X1348009Y1073633D01*
Y1073117D01*
X1348076Y1072606D01*
X1348210Y1072107D01*
X1348407Y1071630D01*
X1348665Y1071183D01*
X1348979Y1070774D01*
X1349345Y1070409D01*
X1349754Y1070095D01*
X1350201Y1069837D01*
X1350678Y1069639D01*
X1351176Y1069506D01*
X1351688Y1069438D01*
X1352204D01*
X1352716Y1069506D01*
X1353214Y1069639D01*
X1353691Y1069837D01*
X1354138Y1070095D01*
X1354547Y1070409D01*
X1354912Y1070774D01*
X1355226Y1071183D01*
X1355484Y1071630D01*
X1355682Y1072107D01*
X1355816Y1072606D01*
X1355883Y1073117D01*
Y1073633D01*
X1355816Y1074145D01*
X1355682Y1074644D01*
X1355484Y1075121D01*
X1355226Y1075567D01*
X1354912Y1075977D01*
X1354547Y1076342D01*
X1354138Y1076656D01*
X1353691Y1076914D01*
X1353214Y1077112D01*
X1352716Y1077245D01*
X1352204Y1077312D01*
D02*
G37*
G36*
X1304732Y1075304D02*
X1303679D01*
X1302662Y1075031D01*
X1301750Y1074504D01*
X1301005Y1073760D01*
X1300478Y1072848D01*
X1300206Y1071830D01*
Y1070777D01*
X1300478Y1069760D01*
X1301005Y1068848D01*
X1301750Y1068103D01*
X1302662Y1067576D01*
X1303679Y1067304D01*
X1304732D01*
X1305750Y1067576D01*
X1306662Y1068103D01*
X1307407Y1068848D01*
X1307933Y1069760D01*
X1308206Y1070777D01*
Y1071830D01*
X1307933Y1072848D01*
X1307407Y1073760D01*
X1306662Y1074504D01*
X1305750Y1075031D01*
X1304732Y1075304D01*
D02*
G37*
%LPD*%
D13*
X1280246Y1078775D02*
G03*
X1267833Y1086411I-0013211J-0007569D01*
G01*
X1320154Y1107628D02*
G03*
X1233261Y1140700I-0079888J-0079211D01*
G01*
X1267291Y1121671D02*
G03*
X1257213Y1123868I-0025939J-0094735D01*
G01*
X1321373Y1083894D02*
G03*
X1267291Y1121671I-0080020J-0056959D01*
G01*
X1326414Y1089834D02*
G03*
X1244246Y1131856I-0093677J-0081828D01*
G01*
X1269797Y1113765D02*
G03*
X1268951Y1113991I-0020683J-0075797D01*
G01*
X1317085Y1077375D02*
G03*
X1269797Y1113765I-0067971J-0039408D01*
G01*
X1204683Y1132241D02*
G03*
X1204633Y1133171I-0001449J0000388D01*
G01*
X1269663Y1085329D02*
X1270059Y1084932D01*
X1269335Y1085821D02*
X1269450Y1085542D01*
X1268796Y1087136D02*
X1269335Y1085821D01*
X1277814Y1082324D02*
X1280147Y1080197D01*
X1269450Y1085542D02*
X1269663Y1085329D01*
X1313046Y1052075D02*
X1315867Y1054896D01*
X1315872Y1054902D02*
X1316458Y1055471D01*
X1311146Y1052075D02*
X1313046D01*
X1302896Y1060325D02*
X1311146Y1052075D01*
X1315867Y1054896D02*
X1315872Y1054902D01*
X1260517Y1098292D02*
X1264888Y1106512D01*
X1258246Y1094775D02*
X1260517Y1098292D01*
X1264888Y1106512D02*
X1265488Y1107573D01*
X1238793Y1118438D02*
X1239207Y1119584D01*
X1234146Y1105575D02*
X1235388Y1109567D01*
X1238793Y1118438D01*
X1303328Y1060325D02*
X1309095Y1066092D01*
X1307310Y1056011D02*
X1311614Y1060315D01*
X1233261Y1140700D02*
X1233279Y1140677D01*
X1214457Y1164275D02*
X1233261Y1140700D01*
X1223926Y1113512D02*
X1233279Y1140677D01*
X1255626Y1121465D02*
X1257213Y1123868D01*
X1242611Y1127596D02*
X1244246Y1131856D01*
X1241888Y1126568D02*
X1242611Y1127596D01*
X1208544Y1164275D02*
X1214457D01*
X1241888Y1126568D02*
X1244289Y1126951D01*
X1324146Y1058649D02*
X1326484Y1089829D01*
X1267291Y1121671D02*
X1267291D01*
X1314565Y1057364D02*
X1319646Y1062445D01*
X1321346Y1083875D01*
X1320342Y1054845D02*
X1324146Y1058649D01*
X1255626Y1121465D02*
X1258049Y1121680D01*
X1315646Y1068133D02*
X1317085Y1077375D01*
X1293756Y1077807D02*
X1301108Y1087563D01*
X1291246Y1074475D02*
X1293756Y1077807D01*
X1311614Y1060315D02*
X1311614D01*
X1269000Y1114178D02*
X1270869Y1113210D01*
X1309721Y1062208D02*
X1315646Y1068133D01*
X1291246Y1071975D02*
X1302896Y1060325D01*
X1303328D01*
X1291246Y1071975D02*
Y1074475D01*
X1222568Y1109568D02*
X1223926Y1113512D01*
X1203782Y1164638D02*
X1208544Y1164275D01*
X1204633Y1133171D02*
Y1147672D01*
X1180948Y1148890D02*
X1203782D01*
X1180948Y1164638D02*
X1203782D01*
X1201467Y1120238D02*
X1204683Y1132241D01*
X1203782Y1148890D02*
X1204633Y1147672D01*
X1200174Y1116267D02*
X1201467Y1120238D01*
X1251965Y1113575D02*
X1252465Y1114686D01*
X1246099Y1100553D02*
X1247692Y1104413D01*
X1251965Y1113575D01*
D14*
X1304206Y1071304D02*
D03*
X1325554Y1049955D02*
D03*
D15*
X1301108Y1087563D02*
D03*
X1217146Y1133975D02*
D03*
X1320546Y1107375D02*
D03*
D16*
X1199446Y1114475D02*
D03*
D17*
X1320042Y1054546D02*
D03*
X1308795Y1065793D02*
D03*
D18*
X1316159Y1055172D02*
D03*
X1314266Y1057065D02*
D03*
X1311315Y1060016D02*
D03*
X1309422Y1061909D02*
D03*
D19*
X1280214Y1080168D02*
D03*
D20*
X1291246Y1073225D02*
D03*
D21*
X1210646Y1111275D02*
D03*
D22*
X1268796Y1087136D02*
D03*
D23*
X1257446Y1093075D02*
D03*
D24*
X1233346Y1103575D02*
D03*
D25*
X1245125Y1098875D02*
D03*
D26*
X1221946Y1107675D02*
D03*
D27*
X1241888Y1126568D02*
D03*
X1239207Y1119584D02*
D03*
D28*
X1252465Y1114686D02*
D03*
X1255626Y1121465D02*
D03*
D29*
X1269000Y1114178D02*
D03*
X1265488Y1107573D02*
D03*
D30*
X1351946Y1073375D02*
D03*
X1238046Y1155375D02*
D03*
X1168446Y1120975D02*
D03*
D31*
X1203782Y1164638D02*
D03*
Y1148890D02*
D03*
X1180948Y1164638D02*
D03*
Y1148890D02*
D03*
M02*
